<?xml version="1.0" encoding="iso-8859-1"?>
<!-- Uploaded to: SVG Repo, www.svgrepo.com, Generator: SVG Repo Mixer Tools -->
<svg height="800px" width="800px" version="1.1" id="Layer_1" xmlns="http://www.w3.org/2000/svg" xmlns:xlink="http://www.w3.org/1999/xlink" 
	 viewBox="0 0 512.001 512.001" xml:space="preserve">
<polygon style="fill:#F95428;" points="247.728,339.426 210.467,351.007 198.886,388.256 176.366,356.402 137.352,356.908 
	160.687,325.635 148.155,288.695 185.108,301.227 216.368,277.893 215.874,316.894 "/>
<g>
	<path style="fill:#808080;" d="M189.244,169.851l152.908,152.896c-3.519,5-7.531,9.766-12.013,14.248L196.454,470.667
		c-5.321,5.321-11.05,9.988-17.1,13.988v-0.012L27.347,332.636c4-6.05,8.667-11.778,13.988-17.1l133.673-133.673
		C179.478,177.394,184.243,173.382,189.244,169.851z M210.467,351.007l37.261-11.581l-31.853-22.532l0.494-39.002l-31.261,23.334
		l-36.952-12.531l12.531,36.94l-23.334,31.273l39.014-0.506l22.52,31.853L210.467,351.007z"/>
	<path style="fill:#808080;" d="M502.739,172.937l-73.596,74.781l-74.263-27.903c-1.951-5.087-4.309-10.062-7.074-14.865
		l64.805-65.867L502.739,172.937z"/>
</g>
<path style="fill:#4D4D4D;" d="M339.065,9.263l33.853,90.115l-65.867,64.818c-4.803-2.766-9.778-5.124-14.865-7.074l-27.903-74.263
	L339.065,9.263z"/>
<g>
	<path style="fill:#666666;" d="M179.354,484.643v0.012c-18.272,12.087-39.36,18.137-60.46,18.137
		c-28.075,0-56.138-10.704-77.559-32.125c-37.52-37.52-42.175-95.449-13.988-138.031L179.354,484.643z"/>
	<path style="fill:#666666;" d="M354.881,219.816c13.038,33.705,8.803,72.559-12.729,102.931L189.244,169.851
		c18.902-13.408,41.113-20.112,63.324-20.112c13.457,0,26.902,2.457,39.619,7.383c5.087,1.951,10.062,4.309,14.865,7.074
		c8.26,4.716,16.025,10.605,23.075,17.667h0.012c7.05,7.05,12.939,14.828,17.667,23.087
		C350.572,209.754,352.93,214.729,354.881,219.816z"/>
	<path style="fill:#666666;" d="M342.152,322.746l-29.683-29.682c-3.519,5-7.531,9.765-12.012,14.246L166.772,440.984
		c-5.319,5.319-11.045,9.984-17.092,13.983l29.675,29.675v0.012c6.05-4,11.778-8.667,17.1-13.988L330.14,336.994
		C334.621,332.512,338.633,327.747,342.152,322.746z"/>
</g>
<g>
	<path style="fill:#4D4D4D;" d="M179.354,484.643l-29.683-29.683v0.012c-18.272,12.087-39.36,18.137-60.46,18.137
		c-21.408,0-42.807-6.231-61.261-18.685c3.869,5.725,8.316,11.175,13.385,16.243c21.421,21.421,49.484,32.125,77.559,32.125
		c21.1,0,42.187-6.05,60.46-18.137V484.643z"/>
	<path style="fill:#4D4D4D;" d="M354.881,219.816c-1.951-5.087-4.309-10.062-7.074-14.865c-4.729-8.26-10.618-16.038-17.667-23.087
		h-0.012c-5.077-5.085-10.53-9.554-16.266-13.422c1.509,2.236,2.937,4.51,4.263,6.827c2.766,4.803,5.124,9.778,7.074,14.865
		c13.038,33.705,8.803,72.559-12.729,102.931l29.683,29.683C363.684,292.375,367.918,253.521,354.881,219.816z"/>
</g>
<g>
	<path style="fill:#333333;" d="M511.783,170.941c-0.675-3.061-2.853-5.572-5.787-6.674l-90.121-33.855
		c-3.427-1.286-7.289-0.435-9.857,2.174L349.3,190.227c-1.98-2.766-4.104-5.457-6.351-8.081l79.549-79.549
		c3.616-3.616,3.616-9.478,0-13.094c-3.615-3.616-9.478-3.616-13.094,0l-79.549,79.549c-2.624-2.247-5.316-4.369-8.082-6.351
		l57.641-56.716c2.609-2.567,3.461-6.43,2.174-9.856L347.735,6.005c-1.103-2.933-3.614-5.111-6.674-5.787
		c-3.059-0.677-6.255,0.244-8.488,2.442l-74.785,73.596c-2.609,2.568-3.461,6.43-2.173,9.856l21.403,56.968
		c-37.991-7.92-79.127,2.806-108.557,32.236L34.785,308.993c-46.379,46.379-46.379,121.844,0,168.224
		c23.19,23.19,53.651,34.784,84.111,34.784s60.921-11.594,84.111-34.784l133.675-133.674
		c29.431-29.431,40.156-70.567,32.236-108.558l56.969,21.403c1.061,0.399,2.162,0.591,3.254,0.591c2.438,0,4.829-0.964,6.602-2.766
		l73.596-74.785C511.539,177.197,512.457,174.001,511.783,170.941z M275.067,85.236l60.341-59.382l26.728,71.151l-56.772,55.861
		c-1.951-0.964-3.922-1.874-5.913-2.725L275.067,85.236z M47.88,464.121c-31.447-31.447-37.615-78.725-18.554-116.409
		l134.963,134.963C126.605,501.737,79.327,495.569,47.88,464.121z M189.913,464.122c-3.048,3.048-6.261,5.83-9.583,8.404
		L39.476,331.672c2.574-3.322,5.356-6.535,8.404-9.583l133.674-133.674c2.22-2.22,4.529-4.296,6.898-6.264l141.402,141.4
		c-1.968,2.369-4.046,4.678-6.266,6.898L189.913,464.122z M340.47,307.975L204.026,171.532
		c38.168-21.058,87.231-15.449,119.562,16.882C355.919,220.745,361.528,269.807,340.47,307.975z M426.767,236.935l-64.905-24.385
		c-0.851-1.991-1.761-3.962-2.725-5.913l55.862-56.772l71.15,26.728L426.767,236.935z"/>
	<path style="fill:#333333;" d="M253.071,331.864l-27.878-19.714l0.437-34.14c0.044-3.525-1.915-6.768-5.056-8.37
		c-3.141-1.6-6.918-1.279-9.741,0.83l-27.364,20.421l-32.334-10.965c-3.337-1.131-7.03-0.27-9.521,2.222
		c-2.493,2.493-3.353,6.183-2.221,9.521l10.965,32.335l-20.421,27.364c-2.109,2.825-2.43,6.602-0.83,9.742
		c1.6,3.141,4.9,5.1,8.368,5.055l34.141-0.437l19.714,27.877c1.752,2.478,4.583,3.914,7.56,3.914c0.48,0,0.965-0.038,1.449-0.115
		c3.48-0.552,6.347-3.031,7.394-6.397l10.135-32.604l32.604-10.135c3.367-1.046,5.846-3.913,6.398-7.394
		C257.422,337.392,255.948,333.899,253.071,331.864z M207.722,342.162c-2.91,0.905-5.189,3.183-6.094,6.094l-6.01,19.337
		l-11.692-16.533c-1.737-2.456-4.557-3.913-7.56-3.913c-0.04,0-0.079,0-0.119,0.001L156,347.408l12.11-16.229
		c1.824-2.442,2.327-5.625,1.348-8.512l-6.503-19.176l19.176,6.503c2.887,0.978,6.069,0.475,8.512-1.348l16.229-12.11l-0.259,20.248
		c-0.038,3.047,1.425,5.919,3.913,7.678l16.533,11.692L207.722,342.162z"/>
</g>
</svg>