<!DOCTYPE svg PUBLIC "-//W3C//DTD SVG 1.1//EN" "http://www.w3.org/Graphics/SVG/1.1/DTD/svg11.dtd">
<!-- Uploaded to: SVG Repo, www.svgrepo.com, Transformed by: SVG Repo Mixer Tools -->
<svg width="800px" height="800px" viewBox="-4.8 -4.8 33.60 33.60" fill="none" xmlns="http://www.w3.org/2000/svg" stroke="#ffffff">
<g id="SVGRepo_bgCarrier" stroke-width="0">
<rect x="-4.8" y="-4.8" width="33.60" height="33.60" rx="3.36" fill="#282828" strokewidth="0"/>
</g>
<g id="SVGRepo_tracerCarrier" stroke-linecap="round" stroke-linejoin="round"/>
<g id="SVGRepo_iconCarrier"> <path d="M3 9H21M7 3V5M17 3V5M11.9976 12.7119C11.2978 11.9328 10.1309 11.7232 9.25414 12.4367C8.37738 13.1501 8.25394 14.343 8.94247 15.1868C9.33119 15.6632 10.2548 16.4983 10.9854 17.1353C11.3319 17.4374 11.5051 17.5885 11.7147 17.6503C11.8934 17.703 12.1018 17.703 12.2805 17.6503C12.4901 17.5885 12.6633 17.4374 13.0098 17.1353C13.7404 16.4983 14.664 15.6632 15.0527 15.1868C15.7413 14.343 15.6329 13.1426 14.7411 12.4367C13.8492 11.7307 12.6974 11.9328 11.9976 12.7119ZM6.2 21H17.8C18.9201 21 19.4802 21 19.908 20.782C20.2843 20.5903 20.5903 20.2843 20.782 19.908C21 19.4802 21 18.9201 21 17.8V8.2C21 7.07989 21 6.51984 20.782 6.09202C20.5903 5.71569 20.2843 5.40973 19.908 5.21799C19.4802 5 18.9201 5 17.8 5H6.2C5.0799 5 4.51984 5 4.09202 5.21799C3.71569 5.40973 3.40973 5.71569 3.21799 6.09202C3 6.51984 3 7.07989 3 8.2V17.8C3 18.9201 3 19.4802 3.21799 19.908C3.40973 20.2843 3.71569 20.5903 4.09202 20.782C4.51984 21 5.07989 21 6.2 21Z" stroke="#ffffff" stroke-width="2" stroke-linecap="round" stroke-linejoin="round"/> </g>
</svg>