<?xml version="1.0" encoding="iso-8859-1"?>
<!-- Uploaded to: SVG Repo, www.svgrepo.com, Generator: SVG Repo Mixer Tools -->
<svg height="800px" width="800px" version="1.1" id="Layer_1" xmlns="http://www.w3.org/2000/svg" xmlns:xlink="http://www.w3.org/1999/xlink" 
	 viewBox="0 0 512.009 512.009" xml:space="preserve">
<circle style="fill:#F7B239;" cx="256.004" cy="256.004" r="256.004"/>
<g>
	<path style="fill:#E09B2D;" d="M121.499,390.501C29.407,298.407,22.15,153.608,99.723,53.204
		c-8.593,6.638-16.861,13.895-24.743,21.777c-99.974,99.974-99.974,262.065,0,362.038s262.065,99.974,362.038,0
		c7.881-7.881,15.138-16.15,21.777-24.743C358.392,489.85,213.593,482.593,121.499,390.501z"/>
	<path style="fill:#E09B2D;" d="M298.92,412.484c-0.848,0-1.711-0.114-2.566-0.354c-26.4-7.401-54.306-7.402-80.707,0
		c-5.045,1.414-10.282-1.53-11.698-6.575c-1.414-5.045,1.528-10.283,6.575-11.698c29.75-8.341,61.201-8.341,90.951,0
		c5.045,1.414,7.989,6.652,6.575,11.698C306.876,409.744,303.067,412.484,298.92,412.484z"/>
</g>
<path style="fill:#A81004;" d="M412.859,328.67c-0.164,0.506-0.342,1.025-0.519,1.531c-0.126,0.354-0.253,0.708-0.38,1.063
	c-5.314,14.777-16.333,26.075-29.794,32.059l-0.089-0.19c-0.544-1.012-1.126-2.012-1.708-2.998
	c-14.866-25.05-42.18-41.826-73.442-41.826c-19.091,0-36.702,6.263-50.923,16.865c-14.22-10.602-31.857-16.865-50.96-16.865
	c-31.224,0-58.564,16.776-73.417,41.826c-0.582,0.987-1.164,1.986-1.708,2.998l-0.089,0.19
	c-13.461-5.984-24.481-17.282-29.794-32.059c-0.127-0.354-0.253-0.708-0.38-1.063c-0.177-0.506-0.354-1.012-0.519-1.518
	c5.832-17.801,20.508-32.363,40.371-36.93c76.656-17.598,156.323-17.598,232.979,0C392.338,296.32,407.026,310.869,412.859,328.67z"
	/>
<path style="fill:#FFFFFF;" d="M372.487,257.037c31.996,7.338,50.556,40.662,40.371,71.633
	c-5.832-17.801-20.521-32.35-40.371-36.917c-76.656-17.598-156.323-17.598-232.979,0c-19.863,4.567-34.539,19.129-40.371,36.93
	c-10.172-30.984,8.363-64.295,40.371-71.646C216.165,239.438,295.832,239.438,372.487,257.037z"/>
<path style="fill:#F95428;" d="M380.369,360.134c0.582,0.987,1.164,1.986,1.708,2.998l0.089,0.19v0.013
	c-10.64,4.732-22.823,6.161-34.931,3.391c-60.032-13.765-122.429-13.765-182.474,0c-12.108,2.771-24.291,1.341-34.931-3.391v-0.013
	l0.089-0.19c0.544-1.012,1.126-2.012,1.708-2.998c14.853-25.05,42.193-41.826,73.417-41.826c19.104,0,36.74,6.263,50.96,16.865
	c14.22-10.602,31.831-16.865,50.923-16.865C338.189,318.308,365.504,335.084,380.369,360.134z"/>
<g>
	<path style="fill:#4D4D4D;" d="M198.783,196.913c1.28-3.894-0.086-8.17-3.386-10.601c-1.575-1.16-39.205-28.415-94.817-28.415
		c-5.24,0-9.489,4.248-9.489,9.489s4.248,9.489,9.489,9.489c22.112,0,41.181,4.958,55.496,10.435
		c-45.618,7.168-87.512,25.466-89.688,26.427c-4.795,2.115-6.966,7.717-4.851,12.511c1.566,3.549,5.042,5.662,8.687,5.662
		c1.279,0,2.58-0.261,3.825-0.81c0.628-0.277,63.296-27.658,115.721-27.658C193.866,203.44,197.502,200.807,198.783,196.913z"/>
	<path style="fill:#4D4D4D;" d="M445.613,213.734c-2.177-0.96-44.13-19.284-89.784-26.442c14.284-5.469,33.353-10.42,55.591-10.42
		c5.242,0,9.489-4.248,9.489-9.489c0-5.24-4.247-9.489-9.489-9.489c-55.611,0-93.242,27.255-94.817,28.415
		c-3.3,2.432-4.666,6.708-3.386,10.601c1.28,3.894,4.915,6.527,9.014,6.527c52.27,0,114.95,27.319,115.721,27.658
		c1.245,0.55,2.546,0.81,3.825,0.81c3.645,0,7.12-2.112,8.687-5.662C452.581,221.45,450.408,215.85,445.613,213.734z"/>
</g>
</svg>