<!DOCTYPE svg PUBLIC "-//W3C//DTD SVG 1.1//EN" "http://www.w3.org/Graphics/SVG/1.1/DTD/svg11.dtd">
<!-- Uploaded to: SVG Repo, www.svgrepo.com, Transformed by: SVG Repo Mixer Tools -->
<svg fill="#ffffff" version="1.1" id="Capa_1" xmlns="http://www.w3.org/2000/svg" xmlns:xlink="http://www.w3.org/1999/xlink" width="800px" height="800px" viewBox="0 0 31.865 31.865" xml:space="preserve" stroke="#ffffff">
<g id="SVGRepo_bgCarrier" stroke-width="0"/>
<g id="SVGRepo_tracerCarrier" stroke-linecap="round" stroke-linejoin="round"/>
<g id="SVGRepo_iconCarrier"> <g> <g> <path d="M26.603,23.643l-9.712,5.607v-7.236l-0.31,0.155c-0.213,0.08-0.434,0.121-0.647,0.121c-0.21,0-0.424-0.04-0.639-0.118 l-0.052-0.007l-0.168-0.078l-0.099-0.05v7.213l-9.712-5.607v-6.496L3.35,16.184v8.012c0,0.342,0.183,0.658,0.479,0.828 l11.626,6.714c0.147,0.085,0.313,0.128,0.479,0.128s0.331-0.042,0.479-0.128l11.625-6.714c0.297-0.17,0.479-0.486,0.479-0.828 v-8.014l-1.914,0.959L26.603,23.643L26.603,23.643z"/> <path d="M16.626,4.459L16.232,4.33c-0.193-0.063-0.403-0.063-0.598,0l-0.393,0.129c0.256,0.588,0.488,1.177,0.691,1.737 C16.137,5.636,16.371,5.047,16.626,4.459z"/> <path d="M29.854,9.475c0-0.006,0.002-0.012,0.002-0.019c-0.001-0.02-0.01-0.039-0.012-0.059c-0.007-0.064-0.019-0.127-0.038-0.188 c-0.01-0.03-0.021-0.058-0.033-0.086c-0.023-0.054-0.051-0.104-0.083-0.152c-0.019-0.026-0.034-0.052-0.055-0.076 c-0.038-0.047-0.082-0.087-0.13-0.127c-0.021-0.018-0.041-0.039-0.064-0.055C29.435,8.71,29.432,8.704,29.426,8.7 c-0.069-0.046-0.144-0.081-0.222-0.107c-0.002,0-0.004-0.002-0.006-0.003l-2.406-0.791c-0.111,0.123-0.223,0.24-0.328,0.346 c-1.1,1.1-2.956,2.016-4.678,2.697l2.049,0.832v4.72l-2.84,1.432v-4.931l-3.252-1.719c0.84-0.226,6.019-1.682,8.043-3.708 c0.592-0.59,1.371-1.505,1.32-2.633c-0.05-1.125-0.836-1.784-1.468-2.313c-0.181-0.151-0.373-0.311-0.558-0.493 c-0.183-0.183-0.342-0.376-0.494-0.558c-0.52-0.62-1.229-1.47-2.416-1.47c-1.084,0-1.963,0.754-2.529,1.321 c-2.029,2.029-3.484,7.217-3.709,8.049c-0.224-0.829-1.68-6.02-3.71-8.049C11.656,0.754,10.777,0,9.694,0 C8.507,0,7.797,0.85,7.277,1.47c-0.151,0.181-0.31,0.374-0.493,0.557C6.601,2.21,6.407,2.369,6.227,2.521 c-0.633,0.53-1.419,1.188-1.469,2.314c-0.05,1.127,0.729,2.043,1.32,2.633c2.025,2.027,7.21,3.483,8.046,3.708l-3.254,1.719v4.931 l-2.84-1.432v-4.72l2.051-0.833c-1.724-0.682-3.582-1.598-4.68-2.697C5.296,8.039,5.185,7.921,5.073,7.798L2.668,8.589 c-0.002,0-0.004,0.002-0.006,0.002C2.586,8.617,2.511,8.653,2.44,8.699C2.434,8.702,2.431,8.708,2.425,8.712 C2.401,8.729,2.382,8.749,2.36,8.767c-0.047,0.04-0.091,0.08-0.129,0.126C2.21,8.917,2.194,8.943,2.176,8.97 c-0.032,0.048-0.06,0.099-0.083,0.152C2.081,9.151,2.069,9.179,2.06,9.209C2.04,9.27,2.029,9.332,2.023,9.397 C2.02,9.417,2.011,9.435,2.01,9.456c0,0.006,0.002,0.012,0.002,0.019c0,0.008-0.003,0.016-0.003,0.024v4.348 c0,0.362,0.204,0.692,0.526,0.854l12.966,6.529c0.014,0.007,0.028,0.004,0.043,0.01c0.123,0.055,0.254,0.092,0.388,0.092 c0.134,0,0.265-0.037,0.388-0.092c0.016-0.006,0.029-0.003,0.043-0.01l12.967-6.529c0.321-0.163,0.525-0.493,0.525-0.854V9.499 C29.857,9.492,29.854,9.483,29.854,9.475z M20.658,2.338c1.868-1.868,2.273-0.431,3.411,0.706c1.136,1.137,2.572,1.542,0.704,3.41 c-1.867,1.868-7.47,3.355-7.47,3.355S18.789,4.206,20.658,2.338z M7.799,3.043c1.137-1.136,1.542-2.573,3.41-0.705 c1.869,1.869,3.355,7.471,3.355,7.471S8.961,8.323,7.093,6.455C5.225,4.587,6.663,4.181,7.799,3.043z"/> </g> </g> </g>
</svg>