<!DOCTYPE svg PUBLIC "-//W3C//DTD SVG 1.1//EN" "http://www.w3.org/Graphics/SVG/1.1/DTD/svg11.dtd">
<!-- Uploaded to: SVG Repo, www.svgrepo.com, Transformed by: SVG Repo Mixer Tools -->
<svg fill="#ffffff" height="800px" width="800px" version="1.1" id="Layer_1" xmlns="http://www.w3.org/2000/svg" xmlns:xlink="http://www.w3.org/1999/xlink" viewBox="0 0 503.467 503.467" xml:space="preserve" stroke="#ffffff">
<g id="SVGRepo_bgCarrier" stroke-width="0"/>
<g id="SVGRepo_tracerCarrier" stroke-linecap="round" stroke-linejoin="round"/>
<g id="SVGRepo_iconCarrier"> <g> <g> <path d="M482.133,124.267H364.8c33.067-37.333,40.533-84.267,16-108.8c-9.6-9.6-22.4-14.933-37.333-14.933 c-24.533,0-51.2,13.867-73.6,37.333c-7.467,7.467-13.867,16-18.133,24.533c-5.333-7.467-10.667-16-18.133-23.467 C211.2,15.466,183.466,1.6,160,1.6c-14.933,0-27.733,5.333-37.333,13.867c-24.533,24.533-17.067,71.467,16,108.8H21.333 C9.6,124.267,0,133.867,0,145.6v82.133c0,11.733,9.6,21.333,21.333,21.333h37.333V481.6c0,11.733,9.6,21.333,21.333,21.333 h343.467c11.733,0,21.333-9.6,21.333-20.267v-233.6h36.267c11.733,0,21.333-9.6,22.4-20.267v-83.2 C503.467,133.867,493.867,124.267,482.133,124.267z M154.667,45.333c1.067-2.133,4.267-2.133,6.4-2.133 c8.533,0,25.6,6.4,42.667,23.467c22.4,24.533,25.6,49.067,20.267,55.467c-1.067,2.133-4.267,2.133-6.4,2.133 c-8.533,0-25.6-6.4-42.667-23.467C152.533,76.267,149.333,51.733,154.667,45.333z M230.4,461.334H100.267V249.067H230.4V461.334z M230.4,207.467H42.667v-41.6H230.4V207.467z M301.867,66.667c16-17.067,33.067-23.467,42.667-23.467c2.133,0,5.333,0,6.4,2.133 c6.4,6.4,2.133,32-20.267,55.467c-16,17.067-33.067,23.467-42.667,23.467c-2.133,0-5.333,0-6.4-2.133 C275.2,115.734,279.467,90.133,301.867,66.667z M402.133,461.334H273.067V249.067h129.067V461.334z M273.067,207.467v-41.6 h186.667v41.6H273.067z"/> </g> </g> </g>
</svg>