<!DOCTYPE svg PUBLIC "-//W3C//DTD SVG 1.1//EN" "http://www.w3.org/Graphics/SVG/1.1/DTD/svg11.dtd">
<!-- Uploaded to: SVG Repo, www.svgrepo.com, Transformed by: SVG Repo Mixer Tools -->
<svg width="800px" height="800px" viewBox="-52.05 0 684.34 684.34" id="Layer_1" version="1.1" xml:space="preserve" xmlns="http://www.w3.org/2000/svg" xmlns:xlink="http://www.w3.org/1999/xlink" fill="#5c9367" stroke="#5c9367">
<g id="SVGRepo_bgCarrier" stroke-width="0"/>
<g id="SVGRepo_tracerCarrier" stroke-linecap="round" stroke-linejoin="round"/>
<g id="SVGRepo_iconCarrier"> <style type="text/css"> .st0{clip-path:url(#SVGID_2_);} .st1{clip-path:url(#SVGID_4_);} .st2{clip-path:url(#SVGID_6_);} .st3{clip-path:url(#SVGID_8_);} .st4{clip-path:url(#SVGID_10_);} .st5{clip-path:url(#SVGID_12_);} .st6{clip-path:url(#SVGID_14_);} .st7{clip-path:url(#SVGID_16_);} .st8{clip-path:url(#SVGID_18_);} .st9{clip-path:url(#SVGID_20_);} .st10{clip-path:url(#SVGID_22_);} .st11{clip-path:url(#SVGID_24_);} .st12{clip-path:url(#SVGID_26_);} .st13{clip-path:url(#SVGID_28_);} .st14{clip-path:url(#SVGID_30_);} .st15{clip-path:url(#SVGID_32_);} .st16{clip-path:url(#SVGID_34_);} .st17{clip-path:url(#SVGID_36_);} .st18{clip-path:url(#SVGID_38_);} .st19{clip-path:url(#SVGID_40_);} </style> <g> <defs> <rect height="684.34" id="SVGID_15_" width="580.24" y="0"/> </defs> <clipPath id="SVGID_2_"> <use style="overflow:visible;" xlink:href="#SVGID_15_"/> </clipPath> <g class="st0"> <path d="M409,487.54c2.05-6.48,4.39-12.9,6.09-19.45c7.18-27.66,12.28-55.58,15.64-83.74c0.91-7.63-1-14.45-5.63-20.94 c-1.54-2.15-2.71-4.48-3.03-7.15c2.24,2.85,4.48,5.71,6.72,8.56c0.4-0.15,0.81-0.3,1.21-0.45c-5.13-8.52-10.25-17.03-15.38-25.55 c0.71-0.32,1.41-0.64,2.12-0.97c4.25,5.62,8.5,11.24,13.04,17.24c-0.77-6.25,1.12-12.31-2.35-18.38 c-2.64-4.62-3.82-9.81-5.65-14.75c0.59-0.26,1.18-0.52,1.77-0.78c2.15,2.37,4.31,4.73,6.46,7.1c0.2-0.04,0.41-0.09,0.61-0.13 c-2.32-7-4.64-13.99-6.96-20.99c0.44-0.12,0.87-0.24,1.31-0.37c2.79,6.95,5.58,13.89,8.76,21.78 c-1.56-13.83-3.02-26.81-4.49-39.79c0.33-0.07,0.67-0.14,1-0.21c0.95,2.6,1.91,5.19,3.06,8.33c2.42-10.42,4.68-20.14,7.18-30.9 c-2.01,19.25-3.89,37.37-5.78,55.49c0.46,0.11,0.93,0.22,1.39,0.33c4.03-5.54,8.06-11.09,12.1-16.63c0.39,0.1,0.77,0.19,1.16,0.29 c-6.09,16.85-18.08,32.63-13.64,50.86c5.79-6.05,12.14-12.68,18.49-19.31c0.26,0.12,0.53,0.24,0.79,0.36 c-0.76,1.58-1.36,3.23-2.31,4.72c-5.2,8.12-10.72,16.11-15.64,24.34c-1.87,3.12-3.06,6.71-3.53,10.18 c-3.03,22.34-5.71,44.72-8.66,67.07c-0.77,5.86-2.11,11.67-3.31,18.19c2.04-2.38,3.63-4.23,5.21-6.08 c-10.31,16.63-8.34,35.28-12.75,52.9c5.75-8.6,11.51-17.19,17.26-25.79c0.35,0.14,0.7,0.27,1.04,0.41 c-0.26,0.62-0.39,1.3-0.78,1.85c-13.82,19.5-20.72,40.84-25.1,62.99c-4.59,23.2-10.08,46.28-15.16,69.41 c-0.29,1.3-0.48,2.62-0.71,3.93c0.42,0.09,0.85,0.18,1.27,0.28c3.47-9.55,6.94-19.11,10.42-28.66c0.55,0.11,1.1,0.22,1.65,0.33 c-1.04,4.71-2.07,9.42-3.11,14.12c0.36,0.07,0.71,0.15,1.07,0.22c2.03-6.26,4.23-12.49,6.06-18.8 c9.86-33.93,20.28-67.76,29.26-101.85c10.04-38.08,22.14-75.63,37.29-112.5c3.09-7.52,7.11-14.78,11.29-21.99 c-10.08,21.57-18.32,43.6-24.46,66.13c-6.18,22.64-11.77,45.4-16.76,68.3c14.76-37.59,29.94-74.96,52.14-110.02 c-33.97,66.79-53.47,136.99-70.67,207.73c7.37-20.76,14.23-41.65,22.26-62.23c8.15-20.91,16.88-41.69,26.41-62.19 c9.47-20.38,20.65-40.17,34.02-59.7c0.21,0.91,0.47,1.3,0.33,1.52c-19.52,30.23-31.59,62.78-42.52,95.63 c-9.33,28.06-18.07,56.25-27.13,84.37c-1.18,3.68-2.72,7.27-3.63,11.15c18.7-20.45,38.3-40.14,60.27-58.16 c21.87-17.94,44.26-35.3,71.72-47.48c-3.54,2.25-7.11,4.45-10.6,6.75c-3.52,2.31-7.23,4.48-10.38,7.11 c-13.01,10.85-26.36,21.46-38.58,32.9c-11.1,10.39-17.6,23.26-23.9,36.02c-9.79,19.81-19.38,39.69-28.97,59.57 c-0.74,1.53-0.85,3.26-1.25,4.89c0.56,0.16,1.12,0.31,1.68,0.47c3-5.93,6-11.86,9-17.79c0.32,0.09,0.64,0.18,0.96,0.27 c-0.96,3.14-1.92,6.29-2.88,9.43c0.31,0.16,0.62,0.33,0.93,0.49c2.24-3.39,4.73-6.68,6.69-10.18 c5.51-9.84,10.32-19.98,16.29-29.62c7.52-12.14,16.94-23.31,28.21-33.42c-16.34,17.96-26.99,38.35-37.75,59.97 c19.87-18.34,40.94-33.68,66.92-43.89c-1.87,1.13-3.74,2.26-5.61,3.4c-19.53,11.94-37.19,25.54-50.95,42.2 c-6.84,8.29-8.85,18.33-11.13,28.17c1.11-1.98,2.22-3.97,3.54-6.32c0.24,3.05,0.44,5.57,0.62,7.8c3.25-3.86,6.53-7.76,9.81-11.67 c0.3,0.13,0.6,0.26,0.9,0.39c-2.59,3.99-5.19,7.98-7.78,11.96c13.63-12.51,28.59-23.68,45.32-33.26 c-13.49,11.73-27.45,23.1-37.92,36.71c1.95,1.71,3.38,2.97,5.21,4.57c0.91-2.21,1.68-4.09,2.92-7.09c0,3.31,0,5.45,0,7.58 c0.44,0.1,0.88,0.19,1.32,0.29c1.41-2.75,2.81-5.51,4.48-8.78c-0.19,2.69-0.34,4.78-0.48,6.87c0.39,0.17,0.78,0.34,1.18,0.51 c2.14-2.04,4.28-4.08,6.42-6.12c0.21,0.11,0.42,0.23,0.64,0.34c-2.27,3.1-4.53,6.19-6.79,9.29c8.13,3.12,10.74,1.58,17.45-10.85 c0,2.76,0,4.83,0,6.9c0.41,0.07,0.82,0.14,1.23,0.21c-2.23,2-4.46,3.99-7.36,6.59c10.97,0.64,21.24,1.23,31.52,1.83 c-176.98,6.58-353.94,5.92-530.9,0.08c14.42-0.56,28.83-1.13,43.44-1.7c-0.24-0.69-0.5-1.41-0.8-2.24c0.76,0,1.43,0,2.22,0 c0-1.52,0-3,0-5.11c2.31,6.71,2.91,6.96,14.57,6.1c-1.73-2.09-3.27-3.93-4.8-5.78c0.12-0.14,0.25-0.28,0.37-0.42 c1.55,1.17,3.09,2.34,5.27,3.98c0-3.01,0-5.5,0-8c0.26-0.03,0.52-0.05,0.79-0.08c0.67,2.87,1.34,5.74,2.01,8.61 c0.66,0.01,1.32,0.03,1.98,0.04c0.36-2.18,0.73-4.36,1.18-7.03c1.62,2.12,3.06,4.01,4.5,5.89c-7.48-16.64-23.77-27.45-37.61-39.97 c18.42,9.99,33.55,23.05,48.62,36.37c-7.11-18.51-16.16-36.23-26.75-53.46c14.21,15.46,25.85,32.18,36.31,49.59 c-11.28-46.13-21.63-92.41-47.68-134.91c0.53-0.18,1.06-0.37,1.59-0.55c5.46,9.64,11.33,19.14,16.31,28.95 c13.22,26.05,22.35,53.21,30.98,80.5c1.66,5.25,3.51,10.46,5.53,15.62c0.67,1.71,2.13,3.2,3.22,4.8c0.41-0.11,0.82-0.23,1.23-0.34 c-1.09-7.57-1.68-15.22-3.37-22.7c-4.77-21.21-10.36-42.3-14.95-63.54c-7.75-35.84-25.36-68.65-43.99-101.19 c-1.17-2.04-2.36-4.08-2.95-6.33c40.38,58.55,72.04,120.2,94.71,185.06c0.42-0.04,0.85-0.09,1.27-0.13 c0.13-1.51,0.46-3.03,0.35-4.52c-1.35-18.11-6.72-35.59-12.1-53.06c-14.27-46.4-31.47-92.03-52.95-136.49 c-5.3-10.96-12.18-21.4-18.33-32.08c-0.47-0.82-0.99-1.61-1.01-2.61c21.28,29.27,37.96,60.38,53.09,92.15 c-10.71-39.08-24.44-77.43-39.89-115.38c0.4-0.12,0.81-0.23,1.21-0.35c3.62,8.05,7.45,16.04,10.83,24.15 c8.17,19.62,16.12,39.29,24.21,58.94c0.47,1.13,1.07,2.36,2.04,3.2c7.8,6.75,15.71,13.41,23.96,20.41 c-2.35-17.37-1.52-35.07-6.4-52.01c0.37-0.96,1.09-1.85,0.99-2.68c-1.84-16.62-3.71-33.24-5.8-49.84 c-0.22-1.78-1.87-3.44-2.89-5.14c-5.84-9.78-11.69-19.55-17.53-29.33c0.5-0.22,1.01-0.45,1.51-0.67 c6.58,8.33,13.15,16.65,19.51,24.7c2.25-7.21-0.06-17.18-4.41-23.7c-4.2-6.29-7.32-13.07-10.92-19.63 c0.51-0.21,1.01-0.42,1.52-0.64c4.83,5.68,9.65,11.37,14.48,17.05c0.3-0.05,0.61-0.1,0.91-0.16c-2.38-9.11-4.76-18.21-7.14-27.32 c0.8-0.26,1.59-0.51,2.39-0.77c1.4,2.08,2.79,4.16,4.08,6.07c1.47-8.46,2.98-17.07,4.48-25.68c1.02,13.31-2.46,26.7,2.81,38.81 c-1.31,3.34-2.99,5.86-3.21,8.46c-1.04,12.2-2.58,24.45-2.2,36.65c0.39,12.59,2.79,25.14,5.47,37.61c0-15.15-0.16-30.3,0.05-45.45 c0.17-12,0.8-23.99,1.23-35.99c0.02-0.69,0.16-1.39,0.06-2.07c-3.61-25.2,3.87-49.18,11.78-73.09c1.78-5.38,4.07-10.65,6.67-15.85 c-7.86,23.64-15.09,47.33-16.48,72.46c2.16-2.7,4.04-5.06,5.93-7.41c-1.94,12.9-9.06,24.86-6.03,37.76 c2.35-2.51,5.08-5.43,7.81-8.35c0.44,0.22,0.87,0.44,1.31,0.67c-0.2,5.53-2.63,10.63-6.35,15.08c-3.75,4.47-4.95,9.13-4.63,14.39 c1.53,25.51,2.95,51.03,4.41,76.55c0.17,3.03,0.42,6.06,0.52,7.61c10.08,7.86,19.14,14.92,26.62,20.75 c0.08-9.17,1.97-21.35-5.33-33.02c-6.22-9.94-11.25-20.39-16.8-30.62c0.41-0.18,0.83-0.36,1.24-0.55 c6.95,11.04,13.91,22.08,21.3,33.81c0-2.3,0-3.9,0.29-5.99c0.29-1.47,0.28-2.46,0.28-3.44c-0.51-3.96-0.75-7.95-1.62-11.85 c-0.57-2.57-1.4-5.42-3.25-7.42c-5.7-6.18-10.12-12.8-11.79-20.85c4.7,4.61,9.41,9.21,13.94,13.66c0-4.26,0.73-9.29-0.2-14.11 c-0.94-4.86-3.52-9.5-5.39-14.24c0.41-0.16,0.83-0.32,1.24-0.48c1.63,2.34,3.26,4.67,4.84,6.93c-1.57-18.03-3.14-36.05-4.72-54.06 c0.61-0.05,1.21-0.09,1.82-0.14c1.92,13.88,3.83,27.76,5.75,41.64c0.54,0.03,1.07,0.06,1.61,0.08c1.21-4.19,2.43-8.39,3.64-12.58 c4.59,15.08-6.11,28.67-5.75,43.28c0.44,0.07,0.87,0.15,1.31,0.22c0.49-1.87,0.98-3.74,1.67-6.4c0.71,1.09,1.06,1.63,1.68,2.58 c4.02-8.71,0.68-18.82,9.48-26.74c0.32,3.92,0.73,7.46,0.87,11.01c0.15,3.53,0.03,7.07,0.62,10.55 c5.8-25.82,1.41-50.41-14.32-73.61c0.54-0.16,1.07-0.32,1.61-0.48c1.42,1.96,2.88,3.9,4.27,5.88c1.48,2.1,2.89,4.23,5.37,6.08 c-3.59-12.77-7.18-25.54-10.77-38.32c0.44-0.1,0.89-0.21,1.33-0.31c2.69,7.73,5.37,15.47,8.06,23.2c0.27-0.01,0.53-0.03,0.8-0.04 c-3.47-17.55-6.94-35.11-10.41-52.66c0.08-0.04,0.16-0.09,0.24-0.13c1.72,4.98,3.61,9.92,5.13,14.94 c1.58,5.2,2.95,10.46,4.14,15.73c1.19,5.27,2.15,10.58,3.02,15.9c0.86,5.27,1.48,10.56,2.37,16.97c1.65-2.38,2.64-3.8,3.63-5.23 c0.32,0.04,0.64,0.07,0.96,0.11c-0.77,6.74-1.54,13.47-2.41,21.04c4.61-5.95,4.07-13.26,13.36-15.99 c-1.71,3.71-3.42,7.42-5.64,12.23c2.3,3.35,5.46,7.97,9.14,13.34c0.23-15.45-0.15-29.94-5.01-44.16 c-1.43-4.19-2.03-8.66-2.17-13.03c-0.08-2.51,1.52-5.07,2.66-8.5c2.66,12.06,5.15,23.38,7.65,34.71c0.42-0.02,0.85-0.04,1.27-0.06 c0.44-2.18,0.88-4.37,1.32-6.55c-0.22-0.05-0.44-0.09-0.67-0.14c-0.31,0.57-0.62,1.14-1.24,2.29c-0.28-1.06-0.7-1.69-0.55-2.2 c3.81-12.79,0.59-25.59,0.02-38.36c-0.53-11.87-1.75-23.71-2.28-35.58c-0.34-7.68-3.79-14.41-7.85-21.06 c-1.01-1.66-1.51-3.53-1.75-5.29c0.99,0.44,1.48,0.88,1.97,1.32c1.86,2.75,3.71,5.51,5.57,8.26c0.35-0.03,0.71-0.07,1.06-0.1 c-0.63-10.41-1.26-20.83-1.89-31.24c5.99,10.15,4.05,20.94,4.49,32.24c4.3-4.94,8.1-9.31,11.91-13.68c0.5,0.2,1,0.41,1.5,0.61 c-2.47,4.56-4.26,9.52-7.58,13.6c-5.07,6.24-6.21,12.84-5.63,20.03c1.41,17.5,2.47,35.01,4.12,52.49 c0.34,3.64,2.64,7.15,4.36,10.82c0.32,0.1,0.25,0.06,0.25,0.06c-0.33,3.1-0.65,6.19-0.98,9.29c-0.35-0.02-0.71-0.03-1.06-0.05 c0-1.73,0-3.47,0-5.2c-0.23-0.01-0.46-0.03-0.68-0.04c-0.15,0.62-0.28,1.23-0.44,1.85c-1.46,5.58-3.35,11.11-4.29,16.75 c-1.02,6.19-1.17,12.47-1.69,18.71c0.84,0.07,1.68,0.14,2.51,0.21c0.87-4.78,1.76-9.56,2.59-14.34 c1.51-8.69,2.82-17.42,7.99-25.31c0.46-0.7,0.97-1.36,1.86-2.61c2.43,4.14,0.46,7.47-0.97,10.58c-1.49,3.25-3.89,6.22-6.03,9.51 c5.03-2.64,9.62-5.05,14.21-7.46c0.36,0.43,0.72,0.86,1.08,1.3c-2.24,1.36-4.25,3.24-6.75,3.99c-9.31,2.78-10.88,8.74-10.22,16.01 c5.52-5.07,10.93-10.05,16.35-15.03c0.63,0.21,1.27,0.42,1.9,0.63c-11.07,13.41-7.01,28.01-6.49,43.45 c3.25-4.89,5.86-8.81,8.47-12.74c0.59,0.22,1.18,0.44,1.77,0.65c-1.77,5.32-3.54,10.63-5.56,16.68c1.98-1.02,3.28-1.69,5.08-2.62 c-4.18,5.66-8.01,10.85-10.98,14.88c4.85,27.34,9.48,53.44,14.11,79.55c0.49-0.03,0.98-0.05,1.48-0.08 c1.47-44.29-0.76-88.57-0.54-132.87c2.48,50.81,4.96,101.62,7.44,152.44c0.54,0.01,1.08,0.02,1.62,0.02 c0.32-2.6,0.9-5.2,0.91-7.81c0.14-46.29,0.27-92.58,0.23-138.87c-0.01-10.99-0.49-21.99-1.04-32.97c-0.11-2.22-1.48-4.4-2.35-6.58 c-1.34-3.33-2.75-6.64-4.14-9.96c0.43-0.16,0.86-0.32,1.29-0.48c2.2,3.11,4.39,6.22,6.59,9.32c0.36-0.12,0.73-0.24,1.09-0.36 c-4.06-7.63-8.13-15.26-12.19-22.89c0.65-0.24,1.29-0.48,1.94-0.72c3.65,6.54,7.29,13.08,10.53,18.89 c0.52-13.74,0.91-28.43,1.7-43.1c0.31-5.69-3.31-9.53-7.25-13.5c-9.21-9.27-16.73-19.31-19.96-31.19c0.43-0.23,0.87-0.46,1.3-0.69 c7.43,9.44,14.85,18.89,22.28,28.33c0.1-0.03,0.21-0.05,0.31-0.08c-4.18-7.8-9.25-15.38-12.3-23.47 c-3.05-8.11-4.09-16.74-6.01-25.15c0.65-0.14,1.3-0.29,1.95-0.43c3.42,7.04,6.83,14.08,10.25,21.11c0.31-0.09,0.62-0.17,0.93-0.26 c-0.31-1.58-0.63-3.16-0.94-4.74c0.47-0.12,0.94-0.25,1.41-0.37c2.69,6.56,5.37,13.12,8.06,19.68 c2.29-12.01,0.75-24.08,0.05-36.39c-0.01-0.25-0.06-0.21-0.06-0.21c3.73-5.06,4.27-10.38,1.86-15.98 c-0.3,0.61-0.58,1.19-0.87,1.77c-0.33,0.05-0.65,0.09-0.98,0.14c-2.87-11.55-5.74-23.11-8.61-34.66c0.34-0.08,0.69-0.16,1.03-0.24 c2.64,7.58,5.29,15.17,7.93,22.75c0.6-0.1,1.19-0.21,1.79-0.31c-3.41-15.21-6.81-30.42-10.22-45.63c0.14-0.06,0.28-0.12,0.42-0.18 c1.06,2.55,2.17,5.09,3.16,7.66c1.05,2.75,2.24,5.49,2.92,8.32c2.43,10.12,4.74,20.26,6.96,30.42c1.35,6.19,3.22,12.4,3.44,18.64 c0.24,6.69-1.31,13.41-1.84,20.13c-0.28,3.52-0.05,7.07-0.05,10.07c12.42-13.06,25.17-26.45,37.91-39.85 c0.27,0.1,0.54,0.2,0.81,0.3c-4.9,9.1-9.5,18.33-14.8,27.26c-3.42,5.77-7.59,11.27-11.99,16.57c-2.2,2.64-5.41,4.87-8.63,6.73 c-6.48,3.74-8.2,8.76-3.75,14.38c4.01,5.06,8.65,9.78,12.9,14.72c3.93,4.58,7.69,9.25,12.01,14.46c0-7.11,0.19-13.77-0.12-20.42 c-0.09-1.92-1.54-3.83-2.55-5.67c-3.67-6.71-7.43-13.39-11.15-20.08c0.49-0.2,0.99-0.41,1.48-0.61 c3.7,5.86,7.41,11.72,10.83,17.14c-1.12-7.88-2.29-16.09-3.46-24.29c0.67-0.06,1.34-0.12,2.02-0.18 c0.66,6.61,1.31,13.22,1.97,19.83c0.27,0.01,0.53,0.02,0.8,0.02c0-2.46,0-4.92,0-7.38c0.35-0.03,0.7-0.06,1.05-0.09 c0.53,2.45,1.05,4.89,1.55,7.18c4.75-5.49,9.63-11.13,15.21-17.58c1.02,6.77-0.9,12.13-3.75,17.12 c-2.8,4.91-6.59,9.43-10.05,14.28c2.1,1.57,4.13,3.08,6.34,4.73c3.85-4.96,9.24-9.64,11.31-15.18c2.25-6.01,1.44-12.82,1.87-19.28 c0.08-1.23-0.26-2.47-0.37-3.71c-0.47-5.47,1.42-11.33-3.55-16.3c0.97,0.7,1.94,1.4,4.09,2.95c0-10.11,0.28-19.17-0.21-28.2 c-0.11-2.1-2.37-4.48-4.39-6.08c-11.06-8.78-17.72-20.03-25.06-30.93c6.84,7.93,13.67,15.86,20.51,23.79 c0.24-0.11,0.47-0.23,0.71-0.34c-6.79-10.34-13.58-20.69-20.37-31.03c0.59-0.35,1.18-0.7,1.77-1.05 c8.17,8.07,16.6,15.98,24.3,24.35c1.83,1.99,1.22,5.54,2.33,8.41c0-10.42,0-20.84,0-31.25c0.07-0.02,0.14-0.03,0.21-0.05 c-0.16,1.62-0.33,3.24-0.56,5.57c-6.67-5.18-7.2-11.98-10.15-17.86c0.35-0.19,0.69-0.37,1.04-0.56c3.3,3.03,6.6,6.05,9.9,9.08 c0.38-0.04,0.75-0.08,1.13-0.11c-0.44-3.29,0.1-6.96-1.49-9.81c-7.04-12.66-14.48-25.18-22.22-37.56 c-2.76-4.41-6.76-8.29-9.72-12.67c10.58,9.36,22.06,18.13,25.65,31.55c1.22,4.56,4.01,8.84,6.83,13 c-0.97-4.71-1.94-9.41-2.96-14.37c-0.93-0.38-2-0.81-3-1.22c0-4.37,0-8.48,0-13.28c7.19,4.13,5.6,10.47,8,16.53 c3.2-13.07,5.92-25.33,9.26-37.46c3.3-11.98,7.62-23.73,14.69-34.68c-7.58,19.82-14.29,39.78-17.11,61.61 c2.34-2.67,3.88-4.43,5.43-6.19c0.62,0.16,1.24,0.31,1.86,0.47c-5.7,15.63-10.09,31.39-7.51,48.24c5.81-4.06,11.44-8,17.03-11.91 c2.22,5.26-9.54,19.1-22.28,25.79c0,6.1,0,12.42,0,19.4c6.67-13.47,20.01-21.63,31.59-31.12c-6.46,15.1-14.82,29.17-30.61,39.28 c-0.48,8.46-0.94,16.71-1.41,24.96c0.32,0.08,0.64,0.17,0.96,0.25c5.61-9.52,11.22-19.04,17.27-29.31 c-3.11,14.35-12.28,25.93-18.69,38.37c0.47,0.18,0.94,0.35,1.4,0.53c4.77-5.71,9.53-11.42,15.15-18.16 c-0.17,2.04,0.02,2.96-0.35,3.68c-4.14,8.04-8.53,16-12.47,24.11c-1.31,2.7-1.79,5.75-2.18,8.69c-0.56,4.19-0.68,8.42-1.05,13.53 c4.39-3.49,7.95-6.3,11.5-9.13c4.89-3.9,4.41-9.32,5.68-14.21c3.17-12.23,6.69-24.35,13.39-35.69 c-4.36,13.63-8.72,27.26-13.08,40.9c0.42,0.12,0.84,0.24,1.25,0.35c3.86-3.52,7.71-7.04,11.57-10.56c0.25,0.15,0.5,0.3,0.75,0.44 c-0.42,0.61-0.7,1.35-1.28,1.83c-8.8,7.16-14.02,15.64-15.67,25.93c-1.81,11.3-4.33,22.54-7.13,33.71 c-1.34,5.33-4.17,10.38-6.09,15.62c-0.85,2.32-1.49,4.78-1.54,7.19c-0.18,8.96-0.07,17.93-0.07,26.06 c11.5-7.73,11.62-20.12,13.97-31.85c2.7-13.44,5.62-26.86,8.5-40.28c0.31-1.43,1.02-2.79,2.03-4.07 c-3.32,17.61-6.64,35.22-9.96,52.84c0.47,0.11,0.95,0.22,1.42,0.34c2.67-6.1,5.33-12.21,8-18.31c0.24,0.03,0.47,0.07,0.71,0.1 c-0.09,0.8,0.04,1.68-0.29,2.4c-5.15,10.99-8.08,22.38-9.16,34.11c-1.47,15.96-2.73,31.93-4.39,47.88 c-1.78,17.09,3.47,32.69,13.4,47.48c3.3,4.91,6.12,10.03,9.6,15.77c-0.61-6.6,0.74-12.35-3.77-18.34 c-5.26-6.98-8.34-15.1-12.23-22.77c-0.58-1.13-0.44-2.51,0.43-4.24c1.39,1.01,2.78,2.02,5.11,3.71 c-0.21-3.96-0.25-7.36-0.61-10.73c-0.35-3.3-1.03-6.57-1.56-9.86c0.84-0.21,1.67-0.41,2.51-0.62c1.81,3.26,3.62,6.52,5.42,9.77 c0.3-0.04,0.59-0.09,0.89-0.13c-0.42-7.61-0.85-15.22-1.28-23.04c1.31-0.1,2.16-0.17,2.77-0.21c0.55-2.26,1.07-4.43,1.6-6.6 c0.39,0.03,0.79,0.06,1.18,0.09c1.91,9.9,3.83,19.8,6,31c2.18-7.52,4.57-13.75,11.04-18.51c-0.5,8.69-5.06,20.17-12.33,20.64 c-0.16,2.66-0.32,5.36-0.49,8.05c0.33,0.1,0.67,0.19,1,0.29c1.51-1.82,3.01-3.65,4.52-5.47c0.45,0.22,0.9,0.44,1.36,0.66 c-2,2.69-4,5.37-6.65,8.93c0,3.39,0,7.81,0.01,12.23c0,0.24,0.19,0.47,0.36,0.86c6.2-6,12.35-11.94,19.29-18.65 c0.01,7.34-3.12,12.67-7.01,17.73c-1.69,2.19-3.47,4.68-6,6.02c-13.04,6.88-7.41,17.08-8.02,26.84 c11.95-14.45,23.37-28.26,34.78-42.07c-9.55,18.25-13.08,39.13-33.81,52.14c1.53,9.88-1.82,19.77,5.19,29.66 c-0.46-7.58-0.86-14.06-1.25-20.53c0.55-0.02,1.1-0.04,1.65-0.05c1.01,7.33,2.03,14.66,3.04,21.99 c-0.05-14.46,2.52-28.65,11-41.79c-1.23,4.07-2.51,8.12-3.66,12.2c-1.21,4.29-2.54,8.57-3.35,12.91 c-0.81,4.34-1.05,8.76-1.62,13.88c2.88-1.61,5.1-2.85,7.31-4.09c0.25,0.13,0.5,0.26,0.75,0.39c-1.29,2.46-2.14,5.2-3.99,7.33 c-2.96,3.41-3.31,6.77-1.43,10.46c1.8,3.53,3.7,7.01,6.36,10.4c1.27-11.25,2.54-22.51,3.81-33.76c0.97,2.86,1.93,5.71,2.9,8.59 c4.36-24.05,9.78-47.89,12.74-71.94c3.19-25.93,4.21-52.05,5.79-78.1c0.18-2.93-1.8-6.08-3.34-8.91 c-2.48-4.57-5.43-8.96-7.6-13.77c2.18,2.42,4.36,4.83,6.18,6.84c-3.49-7.79-7.17-16-10.85-24.22c0.66-0.26,1.32-0.53,1.97-0.79 c4.35,5.97,8.69,11.94,13.7,18.82c0-8.7-0.23-16.85,0.07-24.98c0.29-7.91-0.77-15.41-4.13-23.01c-3.43-7.76-4.8-16.15-7.07-24.26 c0.85-0.21,1.7-0.41,2.55-0.62c1.79,4.28,3.58,8.57,5.37,12.85c0.35-0.03,0.71-0.06,1.06-0.09c-1.26-10.51-2.52-21.02-3.77-31.53 c0.66-0.15,1.33-0.29,1.99-0.44c1.47,4.13,3.32,8.19,4.31,12.4c1.05,4.41,1.28,8.95,1.94,13.99c5.5-7.2,7.83-14.6,8.44-22.6 c0.18,0.56,0.37,1.12,0.55,1.68c0.15,0.01,0.3,0.02,0.45,0.03c-0.78-5.98-1.56-11.96-2.34-17.94c6.35,4.76,6.75,5.93,7.71,17.24 c0.99-4.68,1.81-9.38,3.01-14.03c1.21-4.7,2.59-9.39,4.27-13.99c1.72-4.7,3.9-9.28,6.48-13.75c-3.55,11.3-7.1,22.6-10.65,33.89 c0.56,0.18,1.11,0.36,1.67,0.54c2.56-2.9,5.13-5.81,7.69-8.71c-2.76,9.24-5.11,18.5-12.71,26.06c-1.96,1.95-2.71,4.74-3.08,7.56 c2.56-1.89,5.11-3.77,7.67-5.66c0.22,0.13,0.43,0.26,0.65,0.39c-4.35,6.04-8.69,12.09-13.34,18.55 c2.25-9.18,4.41-18.02,6.58-26.85c-0.53-0.1-1.06-0.21-1.59-0.31c-2.75,8.98-5.51,17.97-8.26,26.95 c-0.31-0.01-0.62-0.01-0.92-0.02c-0.4-0.97-0.79-1.94-1.19-2.92c-0.33,0.03-0.66,0.05-1,0.08c0,5.58,0,11.16,0,15.66 c10.6-9.56,21.78-19.63,33.14-29.88c0.1,9.69-14.78,27.33-33.28,39.67c0,4.1,0,8.35,0,13.09c1.59-1.18,2.84-2.1,4.08-3.01 c-6.54,6-3.76,13.14-4.18,21.12c8.09-8.89,15.33-16.85,22.58-24.82c-3.57,9.4-7.98,18.39-13.91,27.04 c-4.28,6.24-7.79,13.62-8.4,20.68c-1.92,22.31-2.3,44.71-3.33,67.07c-0.15,3.16-0.61,6.31-0.32,9.68 c0.95-1.42,1.89-2.84,2.84-4.26c-0.25,0.01-0.51,0.02-0.76,0.03c-3.77,27.07-7.54,54.13-11.32,81.2c0.58,0.02,1.17,0.03,1.75,0.05 c0,4.38,0,8.77,0,13.7c4.41-2.53,8.67-4.98,13.33-7.66c-4.55,5.42-10.12,10.05-12.67,15.64c-2.6,5.7-2.22,12.34-3.26,19.33 c7.54-8.56,14.42-16.36,21.42-24c-1.74,2.89-3.46,5.71-5.49,8.36c-10.83,14.12-17.96,29.37-19.26,46.14 c-1.55,19.95-2.46,39.93-3.59,59.89c-0.05,0.79,0.42,1.61,0.64,2.41c1.52-1.5,2.26-3,2.63-4.55c7.58-31.22,15.2-62.43,22.58-93.68 C407.53,500.33,408.04,493.9,409,487.54z M205.14,452.06c1.66,2.48,3.32,4.96,4.53,6.75c0-6.94,0-14.27,0-21.59 c-0.59-0.02-1.18-0.03-1.78-0.05c-0.64,3.78-1.2,7.56-1.96,11.32c-0.25,1.24-1.01,2.4-1.13,2.81c0.22-3.44-0.13-6.99,0.78-10.29 c1.99-7.21,1.07-13.85-3.63-20.16c-1.65-2.22-2.94-4.62-3.67-6.75c3.63,4.44,7.26,8.89,10.51,12.86c0.65-3.95,2.1-8.59,2.04-13.21 c-0.22-14.76-0.98-29.52-1.64-44.28c-0.06-1.44-0.5-3.14-1.53-4.22c-3.95-4.14-8.22-8.08-13.44-13.14 c0.71,12.85,1.38,24.84,2.08,37.58c3.45-4.44,6.3-8.09,9.14-11.75c0.47,1.97,0.23,3.69-0.46,5.27c-2.9,6.71-6.22,13.31-8.76,20.12 c-0.95,2.54-0.16,5.53-0.94,8.65C194.48,425.95,194.57,439.77,205.14,452.06z M310.19,448.59c-0.23,0.94-0.65,1.87-0.65,2.81 c-0.19,21.79-0.58,43.57-0.3,65.36c0.06,4.49,2.68,8.95,4.12,13.43c1.14-0.9,1.25-1.57,1.29-2.23c1.05-19.7,1.94-39.4,3.27-59.09 c0.31-4.64-1.01-8.57-3.51-12.55c-1.66-2.64-2.62-5.58-3.16-8.17c2.18,3.15,4.35,6.3,6.49,9.39c1.54-15.68,2.76-31.2-6.42-45.58 c-0.5,0.02-0.99,0.03-1.49,0.05C310.09,424.01,310.38,436.03,310.19,448.59z M271.88,276.88c5.4,6.8,10.79,13.59,15.8,19.91 c0-6.42,0-13.58,0-20.39c-9.6-7.23-18.87-14.21-28.38-21.36c0,15.93,0,31.8,0,47.87c2.36-5.29,4.65-10.39,6.93-15.5 c0.58,0.13,1.16,0.26,1.74,0.39c-0.23,1.82-0.3,3.67-0.72,5.46c-1.37,5.88-4.57,11.84-4.03,17.57 c2.09,21.98,5.36,43.89,8.22,65.82c1.05,8.08,2.96,16.14,3.07,24.22c0.15,11.3-0.66,22.64-1.71,33.92 c-1.18,12.74,5.02,23.9,9.86,35.39c0.36,0.86,1.05,1.62,2.18,3.32c0.35-3.29,0.76-5.59,0.8-7.89c0.2-11.74,0.64-23.49,0.3-35.21 c-0.16-5.49-1.61-11-3.01-16.41c-0.76-2.93-2.64-5.66-4.01-8.48c0.29-0.11,0.57-0.23,0.86-0.34c1.8,2.49,3.59,4.99,5.8,8.04 c0-1.62-0.03-2.56,0.01-3.49c0.69-16.28,1.49-32.56,2.05-48.85c0.27-7.69-0.43-15.2-5.82-22.01c-2.72-3.44-4.26-7.52-6.34-11.31 c0.49-0.21,0.97-0.42,1.46-0.64c3.15,4.27,6.3,8.54,9.45,12.81c0.49-0.07,0.98-0.14,1.47-0.22c0-7.86,0.26-15.72-0.12-23.57 c-0.15-3.19-1.09-6.56-2.71-9.45c-5.24-9.32-11.08-18.42-16.45-27.69c-1.97-3.41-3.27-7.08-4.88-10.63 c0.35-0.12,0.7-0.24,1.04-0.36C266.97,270.67,269.23,273.53,271.88,276.88z M172.76,493.42c0.92-5.22-0.9-9.71-4.96-13.71 c-2.88-2.84-5.4-5.95-8.34-8.75c-3.74-3.55-7.75-6.9-12.25-10.87c-0.12,17.23,26.27,155.56,30.67,160.3 c-0.4-4.19-0.79-7.98-1.12-11.78c-1.55-18.16-3.92-36.3-4.36-54.48c-0.35-14.14-2.32-28.32,0.44-42.53 C173.94,505.96,172.87,500.03,172.76,493.42z M290.88,325.02c0,9.04,0,18.08,0,27.11c3.86-4.76,8.27-9,8.06-15.15 c-0.19-5.52,0.63-11.06,1.09-17.81c1.65,2.49,2.51,3.79,3.3,4.97c-6.6,9.68-2.45,29.79,8.52,36.44c0-8.95,0.17-17.06-0.11-25.16 c-0.08-2.36-1.23-4.75-2.28-7c-2.62-5.64-5.47-11.2-8.23-16.79c0.5-0.19,1.01-0.38,1.51-0.57c2.21,3.27,4.42,6.54,6.63,9.82 c1.51-10.57,2-21.04,2.24-31.51c0.03-1.31-1.22-2.69-2.02-3.97c-2.07-3.33-4.23-6.62-6.35-9.93c0.43-0.22,0.85-0.43,1.28-0.65 c1.61,1.63,3.22,3.25,5.6,5.66c0.63-13.71,1.23-26.55,1.85-40.12c-17.36,18.18-24.62,37.87-20.33,60.02 c2.3-2.28,4.28-5.22,7.27-6.93c3.46-1.97,5.32-3.88,3.67-7.68c1.65,0.07,2.81,0.12,5.67,0.23c-3.66,6.46-5.79,12.8-10.31,17.55 c-5.24,5.49-7.84,10.94-6.96,17.74C291.11,322.25,290.93,323.23,290.88,325.02z M258.91,370.62c0.09,16.57,0.59,33.15,0.06,49.71 c-0.24,7.47,5.14,12.17,8.96,18.5c7.08-44.66-4.21-87.73-7.95-131.25c-1.88,4.27-3.31,8.63-3.2,12.96 C257.22,336.97,258.15,353.38,258.91,370.62z M232.97,506.84c3.85-12.63-5.71-21.17-13.36-31.27c0,11.06,0,21.11,0,32.18 c2.44-2.48,4.03-4.09,5.62-5.71c0.44,0.14,0.89,0.28,1.33,0.41c-0.51,2.18-0.37,4.69-1.65,6.49c-5.09,7.12-6.82,14.72-6.02,22.85 c0.09,0.89-0.24,1.81-0.49,3.51c3.61-3.16,6.64-5.82,9.67-8.47c0.35,0.21,0.69,0.43,1.04,0.64c-0.94,1.85-1.49,3.93-2.89,5.5 c-4.15,4.64-3.87,9.86-3.06,15.04c1.62,10.38,3.58,20.71,5.48,31.06c0.7,3.81,1.61,7.59,2.42,11.38c0.65-0.05,1.29-0.1,1.94-0.16 C232.98,562.73,232.98,535.18,232.97,506.84z M305.77,364.06c-2.5-2.82-5-5.64-8.62-9.72c-1.61,6.87-3.94,12.66-4.16,18.51 c-0.57,15.3,0.37,30.65-0.48,45.93c-0.44,7.9,5.72,12.09,9.96,17.59c1.32-11.7,1.93-23.27,3.11-34.8 c0.43-4.23-0.62-7.86-2.97-11.43c-1.92-2.91-3.85-5.81-5.78-8.71c0.26-0.13,0.53-0.25,0.79-0.38c3.04,3.61,6.07,7.23,9.77,11.63 c0.65-7.56,1.53-14.12,1.62-20.68C309.03,369.49,307.25,366.98,305.77,364.06z M178.06,464.33c-0.77,12.58,0.7,24.61,9.97,35.35 c3.55,4.12,5.63,9.12,8.38,13.72c0.26-0.05,0.51-0.11,0.77-0.16c-0.41-2.5-0.82-5.01-1.23-7.51c0.89-2.31,1.12-4.63,0.85-6.91 c-1.46-12.21-3.21-24.4-4.49-36.62c-0.46-4.36-1.26-8.32-5.39-11.52c1.22,0.66,2.44,1.32,4,2.16c0-8.44,0-16.4,0-24.35 C184.24,439.7,175.74,450.3,178.06,464.33z M349.33,554.3c0.5-9.09,0.55-18.22,1.61-27.26c1.09-9.32-4.5-16.67-9.06-24.34 c-1.92-3.22-4.84-6.04-7.31-9.04c-0.49,0.08-0.97,0.16-1.46,0.24c2.23,33.65,4.46,67.31,6.68,100.96 c0.53-0.01,1.05-0.03,1.58-0.04c2.09-19.77-1.72-39.51-0.64-59.34c1.74,11.56,3.47,23.12,5.33,35.5 C347.21,565.08,348.17,560.06,349.33,554.3z M126.97,477.82c-2.64-2.44-5.28-4.88-7.92-7.31c-0.27,0.13-0.54,0.26-0.8,0.39 c11.78,34.71,23.56,69.41,35.68,105.12c0-1.88,0.11-2.71-0.02-3.52c-3.27-21.44-6.51-42.89-9.91-64.32 c-0.77-4.86-0.99-10.12-3.5-14.36C137.17,488.21,131.85,483.43,126.97,477.82z M293.11,490.01c0.21,5.38,0.5,10.75,0.62,16.13 c0.12,5.38-0.11,10.77,0.17,16.14c0.28,5.36,0.91,10.72,1.56,16.06c0.63,5.11,1.5,10.2,2.26,15.29c0.51-0.04,1.03-0.07,1.54-0.11 c0-7.31-0.24-14.62,0.04-21.92c1.08-27.85,2.13-55.71,3.63-83.54c0.4-7.38-5.23-11.84-9.85-17.12 C293.1,450.36,293.1,469.77,293.11,490.01z M189.92,543.21c-3.44-6.86-6.88-13.72-10.54-21.02c-1.49,16.81,7.64,85.63,13.15,88.94 c0-12.55,0-25.09,0-37.64c0.64-0.01,1.28-0.01,1.92-0.02c0.28,2.1,0.57,4.2,0.85,6.29c0.88-4.55,1.18-9.08,1.75-13.59 C198.06,557.99,197.09,550.27,189.92,543.21z M366.17,515c-0.43-3.56-0.85-7.12-1.37-11.42c1.95,2.1,3.33,3.57,4.71,5.05 c-0.44,0.01-0.88,0.03-1.32,0.04c0,12.75,0,25.5,0,38.25c0.56,0.05,1.12,0.09,1.68,0.14c1.25-10.46,2.79-20.9,3.6-31.39 c0.25-3.22-1.12-6.65-2.43-9.79c-2.88-6.9-6.19-13.68-8.85-19.48c-0.61,3.56-0.89,8.34-2.33,12.86 c-3.11,9.74-5.65,19.46-4.12,29.63c0.92,6.14,1.6,12.3,2.38,18.45c0.36-0.05,0.72-0.09,1.07-0.14c0-6.17,0-12.35,0-18.52 c0.19-0.05,0.37-0.09,0.56-0.14c1.83,7.52,3.66,15.03,5.49,22.55c0.31-0.02,0.62-0.05,0.92-0.07 C366.16,539.25,366.16,527.49,366.17,515z M331.8,454.44c5.16-5.37,10.31-10.74,16.21-16.87c-8.18-9.33-19.86-17.55-23.55-30.01 c-1.14,18.24-1.92,36.26-2.5,54.28c-0.08,2.43,0.82,4.88,1.26,7.32c0.74-0.06,1.47-0.11,2.21-0.17c0-14.49,0-28.98,0-43.47 c0.6-0.02,1.2-0.04,1.8-0.06c0.74,10.58,1.48,21.16,2.24,31.92C330.09,456.62,330.78,455.79,331.8,454.44z M264.04,557.18 c0.32-18.78,0.51-37.57,0.98-56.35c0.37-14.5,0.85-29,1.72-43.48c0.51-8.55-1.64-16.47-6.7-24.11c0.8,44.79,1.6,89.58,2.4,134.37 c0.53,0,1.07,0.01,1.6,0.01C264.05,564.41,264.05,561.21,264.04,557.18z M458.36,583.7c-11.69,14.42-16.32,31.05-22.4,47.24 c0.62,0.24,1.25,0.47,1.87,0.71c15.41-25.34,30.82-50.69,46.23-76.03c-0.29-0.16-0.57-0.33-0.86-0.49 C475.04,564.48,466.87,573.82,458.36,583.7z M348.82,448.07c-3.99,5.37-7.43,11.1-12.11,16.02c-4.82,5.06-5.46,10.11-4.06,16.14 c1.84,7.93,4.95,15.19,11.94,21.1c-0.42-2.72-0.67-5.58-2.14-7.91c-3.16-4.99-1.62-9.08,1.97-13.32 c4.06-4.8,6.76-10.09,6.33-14.94c-1.88-4.13-3.27-7.17-4.65-10.22c0.33-0.09,0.65-0.19,0.98-0.28c0.77,0.42,1.53,0.84,2.41,1.32 C349.48,453.15,349.48,450.68,348.82,448.07z M278.85,523.2c3.99-16.44,0.6-53.77-6.08-63.92c0.61,25.51-0.99,50.6,1.28,75.61 c0.62,0.04,1.23,0.09,1.85,0.13C276.86,531.31,277.82,527.61,278.85,523.2z M227.65,363.64c0-5.01,0-10.02,0-15.03 c-0.47-0.06-0.94-0.13-1.41-0.19c-3.96,5.14-7.93,10.27-11.85,15.42c-0.33,0.43-0.41,1.05-0.39,1.58 c0.34,8.03,0.72,16.05,1.1,24.25c3.55-1.47,6.44-2.67,9.83-4.07c0-3.29,0-6.63,0-9.98c0.23,0,0.45,0,0.68,0 c0.57,4.63,1.14,9.27,1.7,13.9c0.11-0.01,0.23-0.02,0.34-0.03C227.65,381.13,227.65,372.76,227.65,363.64z M229.04,412.8 c-0.62-6.06-1.25-12.11-1.87-18.17c-0.43-0.04-0.85-0.08-1.28-0.12c-3.21,5.61-6.93,11.06-9.42,16.88 c-1.18,2.76-1.16,6.64,0.27,9.27c4.23,7.79,9.44,15.21,14.26,22.77c0.29-0.1,0.58-0.21,0.87-0.31 C230.94,433.28,230.01,423.43,229.04,412.8z M202.74,491.13c0.81,12.48,1.61,24.96,2.42,37.45c0.49,0.05,0.98,0.1,1.47,0.15 c1.16-7.05,2.31-14.11,3.34-20.38c-2.26-2.19-3.59-3.48-4.91-4.76c1.18-0.12,1.79,0.27,2.46,0.53c0.72,0.28,1.5,0.45,2.8,0.82 c2.49-16.65-1.71-31.88-9.87-46.52c-0.48,0.05-0.97,0.11-1.45,0.16C200.22,469.17,201.45,479.76,202.74,491.13z M190,419.72 c0-5.22,0-10.44,0-15.54c-1.58-0.85-2.78-1.49-3.98-2.13c0-5.32,0-10.42,0-15.51c-1.72,2.08-2.77,4.31-3.03,6.61 c-0.83,7.43-1.84,14.68-4.2,22.04c-2.65,8.28-1.69,17.35-2.3,26.08c0.53,0.03,1.05,0.07,1.58,0.1c1.36-2.93,2.51-5.94,4.13-8.77 C184.58,428.47,187.31,424.47,190,419.72z M233.68,482.64c-0.58-12.49,0.16-25.16-7.5-37.65c-2.46,8.52-4.74,16.08-6.74,23.69 c-0.31,1.2,0.26,2.82,1.07,3.91c4.14,5.55,8.48,10.99,13.24,17.08C233.75,487.1,233.75,485.25,233.68,482.64z M214.79,582.58 c-0.25-1.21-0.5-2.43-0.74-3.64c0.21-0.03,0.42-0.06,0.62-0.09c0.6,1.8,1.2,3.6,1.81,5.4c0.34-0.02,0.68-0.04,1.03-0.06 c-0.51-12.71-1.01-25.41-1.51-37.84c-1.39,1.8-4.35,3.95-4.7,6.36c-1.07,7.46-2.02,15.07-1.37,22.52 c0.7,7.97,3.26,15.82,5.02,23.72c-0.45,0.07-0.9,0.13-1.36,0.2c-0.74-3.46-1.3-6.95-2.27-10.36c-0.96-3.37-2.32-6.66-3.51-9.99 c-0.44,0.1-0.87,0.2-1.31,0.3c2.59,9.72,5.19,19.44,7.78,29.15c0.54-0.08,1.08-0.16,1.63-0.24 C216.93,599.74,217.64,591.46,214.79,582.58z M324.79,244.68c1.4-5.5,2.81-11,4.21-16.5c-0.39-0.16-0.79-0.31-1.18-0.47 c-2.85,2.45-6.01,4.71-8.47,7.4c-1.89,2.07-3.95,4.65-4.12,7.09c-0.52,7.76-0.19,15.56-0.19,22.53 C320.46,259.85,323.3,252.87,324.79,244.68z M180.93,518.93c5.1,6.34,10.19,12.69,15.89,19.78c0.72-6.47-1.47-10.97-4.52-15.58 c-2.86-4.34-4.39-9.31-6.22-14.08c-1.95-5.07-3.56-10.24-5.32-15.36c-0.55,0.11-1.09,0.23-1.64,0.34c0,6.16-0.1,12.31,0.06,18.47 C179.23,514.49,179.96,516.47,180.93,518.93z M321.71,337.4c1.13-7.61,2.26-15.21,3.39-22.82c-0.56-0.08-1.12-0.16-1.68-0.25 c-1.5,7.32-9.17,13.12-7.36,22.11c-3.6,7.08-2.29,24.77,2.7,29.77C319.73,356.82,320.7,347.49,321.71,337.4z M127.12,617.87 c-5.96-20.71-12.37-41.31-21.45-61.27c-0.15,1.28,0.2,2.44,0.59,3.59c3.7,10.99,7.78,21.9,11.01,32.99 c3.73,12.8,6.68,25.76,10.09,38.63c0.49,1.85,1.67,3.58,2.54,5.36c0.55-0.17,1.1-0.33,1.65-0.5 C130.09,630.64,128.65,624.6,127.12,617.87z M323.82,529.84c0.02,7.32,0.07,14.65,0.07,21.97c0,7.46-0.07,14.92-0.06,22.38 c0.01,7.05,0.09,14.1,0.14,21.14c0.64-0.02,1.29-0.04,1.93-0.05c0-32.31,0-64.63,0-96.94c-1.52,2.8-2.61,5.75-2.64,8.71 C323.18,514.37,323.6,521.69,323.82,529.84z M316.64,389.93c-1.41-1.8-2.82-3.6-4.32-5.51c-2.26,11.71,0.21,25.11,6.86,34.47 c0.52-6.33,0.82-12.68,0.39-19C319.36,396.73,317.82,393.64,316.64,389.93z M221.34,457.03c0.56-3.67,0.53-7.49,1.8-10.98 c2.63-7.2-1.72-12.54-6.04-18.1c-0.44,6.27-0.65,12.52-0.38,18.75c0.26,6.17,1.01,12.32,1.54,18.49c0.19,0.01,0.38,0.01,0.57,0.02 C219.62,462.71,220.39,460.22,221.34,457.03z M287.92,599.23c0.64,1.65,1.28,3.31,1.93,4.96c0.56-0.1,1.12-0.2,1.68-0.29 c-1.39-20.36-2.78-40.72-4.17-61.09C286.09,561.39,285.83,579.96,287.92,599.23z M342.39,490.1c2.33,6.43,4.65,12.86,6.98,19.29 c1.05-3.89,1.14-7.67,1.56-11.42c0.55-4.96,1.51-9.92-4.53-13.17c1.69-3.2,3.15-5.95,4.61-8.71c-2.87,1.98-5.22,4.14-6.76,6.65 C342.99,484.79,342.71,487.25,342.39,490.1z M241.02,515.62c-0.44-2.09-0.89-4.17-1.07-5.05c0,4.24,0.01,9.6,0,14.96 c-0.02,12.13-0.07,24.26-0.02,36.38c0.01,1.53,0.57,3.07,0.88,4.6c0.54-0.04,1.08-0.08,1.62-0.12c0.17-1.44,0.47-2.88,0.48-4.33 c0.08-7.58,0.35-15.17,0.06-22.74C242.66,531.65,241.79,523.99,241.02,515.62z M346.51,383.32c0-1.37,0-2.73,0-4.01 c-1.4-0.8-2.46-1.4-3.64-2.08c-1.95,7.85-0.37,15.14,3.67,23.14C346.54,394.27,346.54,389.18,346.51,383.32z M316.66,103.73 c0,8.77,0,17.53,0,26.3c0.69-0.01,1.38-0.01,2.06-0.02c0-6.56,0.16-13.12-0.08-19.67C318.55,107.94,317.52,105.55,316.66,103.73z M304.67,549.88c0-1.9,0-3.79,0-5.69c-0.44,0.01-0.88,0.01-1.32,0.02c0,10.15,0,20.3,0,30.45c0.44,0.01,0.88,0.02,1.32,0.03 C304.66,566.68,304.66,558.67,304.67,549.88z M336.26,595.11c0-2.37,0-4.74,0-7.1c-0.63,0-1.26,0-1.88,0c0,7.73,0,15.46,0,23.19 c0.59,0.01,1.19,0.02,1.78,0.02C336.16,606.1,336.16,600.98,336.26,595.11z M201.82,454.05c2.45,5.47,4.91,10.94,7.72,17.21 c1.38-8.32-3.19-13.89-8.38-19.29C201.27,452.49,201.38,453.01,201.82,454.05z M349.6,392.13c0,3.45,0,6.89,0,10.34 c0.32,0.01,0.64,0.02,0.96,0.03c0-9.55,0-19.1,0-28.52c0.01-0.01-0.67,0.22-0.67,0.47C349.75,380.07,349.68,385.69,349.6,392.13z M476.01,630.67c0.94-2.11,1.87-4.22,2.81-6.32c-0.4-0.15-0.81-0.3-1.22-0.46c-3.95,6.35-7.9,12.7-11.85,19.05 c0.59,0.26,1.19,0.52,1.78,0.79C470.22,639.55,472.9,635.37,476.01,630.67z M293.92,262.68c1.71-3.18,3.42-6.36,5.24-9.75 c-2.18-0.55-3.66-0.92-5.64-1.42c-0.63,4.65-1.2,8.92-1.93,14.36C292.79,264.27,293.2,263.73,293.92,262.68z M433.5,351.45 c-0.04-3.64-0.07-7.29-0.11-10.93c-0.58,0.03-1.16,0.06-1.74,0.09c0,8.02,0,16.05,0,24.07c0.71-0.7,1.16-1.44,1.21-2.19 C433.12,359.07,433.26,355.66,433.5,351.45z M220.95,389.98c-1.86,4.44-3.71,8.87-5.57,13.31c0.57,0.17,1.14,0.35,1.71,0.52 c2.51-5.14,5.01-10.28,7.52-15.42c-0.36-0.13-0.72-0.26-1.08-0.39C222.83,388.53,222.14,389.06,220.95,389.98z M353.53,473.6 c0.36,2.96,0.72,5.92,1.21,9.89c3.98-7.64,3.8-9.65-0.97-14.87C353.65,470.28,353.57,471.58,353.53,473.6z M299.71,348.98 c-0.06-0.78-0.13-1.55-0.19-2.33c-0.29-0.08-0.58-0.17-0.88-0.25c-2.83,4.92-5.67,9.84-8.5,14.76c0.5,0.2,1,0.39,1.51,0.59 C294.24,357.68,296.84,353.61,299.71,348.98z M314.92,374.97c-0.33-0.52-0.67-1.04-1.35-2.09c-1.99,5.66,0.36,9.66,4.82,13.22 C317.36,382.56,316.33,379.02,314.92,374.97z M243.83,493.38c-1.04-4.67-2.07-9.33-3.11-14c-0.36,0.05-0.72,0.1-1.08,0.15 c1.01,6.09,2.02,12.19,3.03,18.28c0.4-0.04,0.8-0.09,1.2-0.13C243.87,496.48,243.87,495.27,243.83,493.38z M300.45,352.05 c-0.21,0.89-0.97,2.08-0.54,2.61c2.87,3.57,5.98,7.01,9.02,10.49c0.42-0.22,0.83-0.45,1.25-0.67 C307.17,360.38,304.15,356.29,300.45,352.05z M207.02,536.28c0-1.61,0-3.21,0-4.82c-0.57-0.04-1.14-0.08-1.72-0.12 c-2.78,4.09-0.85,8.67-0.3,13.13C205.63,541.97,206.26,539.48,207.02,536.28z M323.58,489.03c0,1.8,0,3.59,0,6.41 c3.11-5.55,3.04-12.21,0.01-18.7C323.59,481.15,323.59,484.7,323.58,489.03z M252.86,224.13c-0.52-1.16-1.05-2.32-1.57-3.48 c-0.48,0.14-0.97,0.28-1.45,0.42c2.04,5.49,4.08,10.98,6.11,16.48c0.48-0.12,0.96-0.23,1.44-0.35 C255.93,233.05,254.45,228.9,252.86,224.13z M261.74,192.71c-0.21-0.04-0.42-0.11-0.62-0.09c-0.07,0-0.16,0.24-0.15,0.36 c0.45,7.59,0.9,15.18,1.36,22.77c0.34-0.01,0.69-0.02,1.03-0.03C262.86,208.23,262.37,200.74,261.74,192.71z M209.31,535.05 c-0.4,1.69-0.8,3.39-1.19,5.08c0.49,0.1,0.98,0.2,1.47,0.3c1.27-3.93,2.55-7.87,3.82-11.8c-0.43-0.1-0.85-0.21-1.28-0.31 C211.29,530.37,210.46,532.41,209.31,535.05z M319.24,319.58c0.63-1.46,1.26-2.93,1.89-4.39c-0.47-0.15-0.94-0.31-1.4-0.46 c-1.92,3.57-3.83,7.13-5.75,10.7c0.48,0.17,0.97,0.35,1.45,0.52C316.59,324.01,317.74,322.07,319.24,319.58z M379.71,508.96 c0,1.6,0,3.2,0,4.81c0.2,0,0.4,0.01,0.61,0.01c0.46-4.44,0.91-8.87,1.37-13.31c-0.48-0.03-0.95-0.06-1.43-0.1 C380.09,502.99,379.92,505.6,379.71,508.96z"/> <path d="M203.29,220.89c-0.91-0.43-1.4-0.87-2.09-1.46c-3.24-6.87-6.29-13.58-9.34-20.3c0.63-0.23,1.26-0.47,1.89-0.7 c3.3,4.29,6.61,8.59,10.43,13.56c-1.82-17.17-7.72-32.75-13.4-48.48c0.99,1.87,2.04,3.71,2.96,5.61c0.99,2.04,1.85,4.12,2.76,6.19 c5.01,11.39,9.57,22.89,10.28,35.13c0.17,2.98-0.35,6.01-0.82,8.98C205.88,219.97,204.49,220.4,203.29,220.89z"/> <path d="M303.17,101.5c2.43,4.89,4.62,9.53,6.82,14.17c-0.27,0.13-0.54,0.26-0.81,0.38c-2.48-2.74-4.97-5.47-7.53-8.3 c-6.46-2.38-9.44-6.09-15.56-21.03C291.71,91.56,297.33,96.41,303.17,101.5z"/> <path d="M471.34,541c7.32-9.92,14.52-19.55,21.71-29.19c0.33,0.18,0.67,0.35,1,0.53c-11.11,16.41-22.22,32.81-33.33,49.22 c-0.44-0.19-0.87-0.38-1.31-0.57C463.35,554.43,467.28,547.86,471.34,541z"/> <path d="M270.53,193.34c-0.09-5.02-0.32-9.74-0.64-16.49c1.51-2.68,4.11-7.33,6.71-11.97c0.9,0.26,1.79,0.52,2.68,0.77 c-2.57,9.94-5.14,19.87-7.7,29.81c-0.55-0.1-1.1-0.2-1.65-0.3C270.1,194.66,270.25,194.14,270.53,193.34z"/> <path d="M257.46,189.2c-3.04-6.15-6.2-12.25-9.02-18.45c-1.21-2.65-1.72-5.51-2.08-8.4c6.97,7.74,13.61,15.55,11.15,26.5 C257.42,189.25,257.48,189.2,257.46,189.2z"/> <path d="M327.48,113.84c4.33-5.02,8.45-9.8,12.56-14.58c0.37,0.2,0.74,0.4,1.11,0.61c-1.91,10.2-11.5,16.47-19.35,23.78 c0.84-1.61,1.64-3.23,2.54-4.81C325.26,117.23,326.29,115.66,327.48,113.84z"/> <path d="M252.95,284.81c-5.02-13.97-10-27.6-14.95-41.24c-0.07-0.2,0.18-0.49,0.64-1.61c7.29,16.14,16.33,31.07,15.64,48.3 C253.84,288.56,253.41,286.86,252.95,284.81z"/> <path d="M212.05,205.74c-0.02-0.97,0.11-1.68-0.04-2.34c-1.35-5.93-1.27-11.51,6.41-15.93c-0.54,3.7-0.67,7.11-1.61,10.37 c-0.83,2.89-2.55,5.6-3.89,8.39c-0.05,0.1-0.29,0.24-0.32,0.22C212.41,206.33,212.25,206.17,212.05,205.74z"/> <path d="M203.89,327.38c-4.32-4.51-4.71-9.55-4.23-14.76C204.17,316.97,206.33,321.81,203.89,327.38z"/> <path d="M173.48,437.58c0.38,1.14,0.38,2.13,0.36,3.29c-1.13-1.03-2.36-2.17-3.31-3.45c-3.31-4.48-6.52-9.01-9.17-13.84 C167.37,426.97,169.87,432.42,173.48,437.58z"/> <path d="M221.12,314.06c-2.92-5.18-0.49-9.55,3.65-13.64c1.53,4.76,0.08,9.08-3.49,13.35 C221.03,313.98,221.1,314.02,221.12,314.06z"/> <path d="M211.1,187.08c1.13-2.86,2.22-5.38,3.32-7.91c0.45,0.08,0.91,0.16,1.36,0.24c1.31,3.56,0.94,6.94-2.99,10.8 C212.02,188.96,211.55,188.18,211.1,187.08z"/> <path d="M247.55,198.17c-0.88-0.94-1.5-1.7-2.12-2.46c0.3-0.27,0.6-0.53,0.9-0.8c3.19,2.32,6.38,4.64,9.57,6.95 c-0.27,0.29-0.54,0.58-0.81,0.87C252.66,201.28,250.23,199.82,247.55,198.17z"/> </g> </g> </g>
</svg>