<!DOCTYPE svg PUBLIC "-//W3C//DTD SVG 1.1//EN" "http://www.w3.org/Graphics/SVG/1.1/DTD/svg11.dtd">
<!-- Uploaded to: SVG Repo, www.svgrepo.com, Transformed by: SVG Repo Mixer Tools -->
<svg width="800px" height="800px" viewBox="-102.4 -102.4 716.80 716.80" xmlns="http://www.w3.org/2000/svg" fill="#000000">
<g id="SVGRepo_bgCarrier" stroke-width="0">
<rect x="-102.4" y="-102.4" width="716.80" height="716.80" rx="71.68" fill="#282828" strokewidth="0"/>
</g>
<g id="SVGRepo_tracerCarrier" stroke-linecap="round" stroke-linejoin="round"/>
<g id="SVGRepo_iconCarrier"> <defs> <style>.e{fill:#eab84b;}.f{fill:#f4f4f4;}.g{fill:#f2c34e;}.h{fill:#318c7a;}.i{fill:#cecece;}.j{fill:#bebebe;}.k{fill:#cc993e;}.l{fill:#dfdfdf;}.m{fill:#41a08e;}.n{fill:#365650;}.o{fill:#9b9b9b;}</style> </defs> <g id="a"/> <g id="b"/> <g id="c"> <g> <path class="o" d="M353.85205,261.38574l-7.77441-1.88672,2.99707-12.34814c1.64551-6.78027,.10498-13.80615-4.22705-19.27539-4.33105-5.47021-10.85205-8.59424-17.79346-8.53076l-4.14648-.00098,.00195-8,4.11768,.00098c9.40869-.0625,18.2207,4.1499,24.0918,11.56396,5.87207,7.41406,7.96045,16.93799,5.72998,26.12891l-2.99707,12.34814Z"/> <path class="j" d="M342.36816,296.625l-5.69531-5.61816,38.68896-39.2251c17.03662-17.27344,16.84473-45.18701-.4292-62.22412l-12.87988-12.69678,5.61621-5.69727,12.88086,12.69775c20.41504,20.13574,20.64209,53.12451,.50732,73.53857l-38.68896,39.2251Z"/> <path class="i" d="M444.84253,73.10767l-45.56567-44.94177L193.21173,237.09143c-4.49451,4.55688-5.84088,11.35388-3.42291,17.27991l15.75677,38.61792c2.04266,5.00623,6.47552,8.64221,11.78467,9.66602l19.81226,3.82056,74.58582,102.91309c5.80206,8.00562,17.40393,8.88525,24.34674,1.84619l44.31293-44.9281c5.63123-5.70935,6.16608-14.70569,1.25104-21.04211l-65.61438-84.58862-.23395-33.94031,117.97229-119.60999,11.07953-34.01831Z"/> <path class="o" d="M336.07507,411.23511l44.31293-44.9281c5.63123-5.70935,6.16608-14.70569,1.25104-21.04211l-65.61438-84.58862c-9.3078,9.43701-24.50336,9.54175-33.94031,.23389l-44.94183,45.56567,74.58582,102.91309c5.80206,8.00562,17.40393,8.88525,24.34674,1.84619Z"/> <path class="j" d="M399.27686,28.16589L193.21173,237.09143c-4.49451,4.55688-5.84088,11.35388-3.42291,17.27991l9.16675,22.46655L422.05969,50.63672l-22.78284-22.47083Z"/> <path class="m" d="M226.38641,349.99463l-19.09131-23.18164c-24.76355-30.06921-61.81818-47.29834-100.76935-46.85425h-.00006l-37.05225,30.5144h0c-7.90375,38.14355,1.90137,77.81396,26.66492,107.88318l19.09131,23.18164c22.39313,27.19092,54.87305,44.11633,89.9884,46.89343h.00006c.30835,.02441,.61414-.07202,.85291-.26855l48.65857-40.07288c.23877-.19666,.39185-.47827,.42706-.78564,4.00702-34.99634-6.37714-70.11877-28.77026-97.30969Z"/> <path class="l" d="M287.99994,24.39038c-21.62952-2.10876-43.21088,4.46118-59.99634,18.26465L124.45905,127.80383l-19.63489,26.50415,30.48767,37.07434,26.8938-7.83032c20.85156-6.07104,40.25269-16.31421,57.02679-30.10815l10.29431-8.46558c36.15808-29.73413,57.51782-73.78394,58.47327-120.58789h-.00006Z"/> <path class="o" d="M104.82416,154.30798L30.6756,215.28333c-6.8252,5.61267-7.80817,15.69543-2.19556,22.52063l10.1626,12.35815c5.61261,6.8252,15.69543,7.80811,22.52063,2.19556l74.14856-60.97534-30.48767-37.07434Z"/> <path class="i" d="M43.03369,205.12085h-.00006l-12.35803,10.16248c-6.8252,5.61267-7.80817,15.69543-2.19556,22.52063l10.1626,12.35815c5.61261,6.8252,15.69543,7.80811,22.52063,2.19556l12.35809-10.1626-30.48767-37.07422Z"/> <path class="i" d="M162.20563,183.552c20.85156-6.07104,40.25269-16.31421,57.02679-30.10815l10.29431-8.46558c36.15808-29.73413,57.51782-73.78394,58.47327-120.58789h-.00006c-5.62964-.54883-11.25385-.49634-16.79327,.1051l-.48212,3.74377c-6.19983,38.25659-26.11615,73.26404-56.44165,98.2019l-10.29437,8.46545c-16.77405,13.79407-36.17517,24.03723-57.02673,30.10828l-26.8938,7.83032,15.24384,18.53711,26.8938-7.83032Z"/> <path class="g" d="M408,328c-44.1828,0-80,35.81714-80,80s35.8172,80,80,80,80-35.81726,80-80-35.8172-80-80-80Zm-53.33331,80c0-29.45532,23.87817-53.33337,53.33331-53.33337,10.17169,0,19.67828,2.84753,27.76617,7.78894l-73.31061,73.31067c-4.94141-8.08801-7.78888-17.5946-7.78888-27.76624Zm53.33331,53.33325c-10.17169,0-19.67841-2.84741-27.7663-7.78882l73.31091-73.31055c4.94128,8.08789,7.7887,17.59436,7.7887,27.76611,0,29.45508-23.87817,53.33325-53.33331,53.33325Z"/> <rect class="o" height="39.99998" transform="translate(97.07176 321.88998) rotate(-45.39503)" width="24.00001" x="421.33411" y="24.90211"/> <rect class="o" height="7.99934" transform="translate(-123.48824 249.83191) rotate(-45.39568)" width="16.00005" x="228.90866" y="268.53598"/> <rect class="o" height="8.00002" transform="translate(-100.57656 259.01455) rotate(-45.3907)" width="15.99971" x="251.37954" y="245.75267"/> <rect class="o" height="32.0001" transform="translate(-100.51419 225.79102) rotate(-45.39441)" width="8.00002" x="215.66527" y="217.05537"/> <rect class="o" height="31.99976" transform="translate(-83.33008 232.70531) rotate(-45.39503)" width="8.00002" x="232.51879" y="199.96838"/> <rect class="o" height="31.99976" transform="translate(-66.14621 239.61585) rotate(-45.39503)" width="8.00002" x="249.37182" y="182.88147"/> <rect class="h" height="31.99998" transform="translate(-162.0717 113.9924) rotate(-39.4733)" width="48.00002" x="53.82809" y="266.86521"/> <path class="f" d="M140.12793,314.46777c-8.95312-10.86938-24.44415-13.24292-36.14166-6.13232l-12.89886-15.6626-6.17578,5.08594,12.89563,15.65869c-4.06274,4.44409-6.57306,10.05444-7.16321,16.1543-.72021,7.44434,1.50146,14.72314,6.25586,20.49658,5.5293,6.71387,13.55322,10.18799,21.63867,10.18799,6.26709,0,12.57178-2.08838,17.77588-6.37402,11.91748-9.81494,13.62842-27.49609,3.81348-39.41455Zm-8.89941,33.23877c-4.12354,3.39648-9.32178,4.98535-14.64062,4.46875-5.31738-.51465-10.11621-3.06885-13.51221-7.19287-3.39648-4.12354-4.9834-9.32275-4.46875-14.64014s3.06885-10.11621,7.19287-13.51221c3.61475-2.97705,8.05518-4.56396,12.67822-4.56396,.65039,0,1.30615,.03174,1.96191,.09521,5.31738,.51416,10.11621,3.06885,13.51221,7.19238,7.00928,8.51318,5.78857,21.14258-2.72363,28.15283Z"/> <path class="e" d="M470.53778,174.52295l-8.61731-7.94153-10.64484,4.90002c-9.71906,4.47388-16.55914,13.50903-18.22784,24.07739l-7.31061,46.30054,6.65442,9.14978-9.14984,6.65442-2.49536,15.8042,47.4126,7.48621,2.49542-15.8042-6.65442-9.14978,9.14978-6.65442,7.31061-46.30054c1.6687-10.56836-2.05481-21.27148-9.92261-28.52209Z"/> <polygon class="k" points="432.39159 251.0092 464 256 470.6544 265.1498 468.159 280.95401 420.74638 273.46781 423.24178 257.6636 432.39159 251.0092"/> <rect class="o" height="70.87699" transform="translate(-81.8559 114.60291) rotate(-39.43168)" width="7.9996" x="114.96968" y="136.07078"/> <path class="m" d="M109.08496,465.41504l-54.86084-44.77051c-25.74951-21.01318-38.39453-54.43896-33-87.23389,3.66113-22.25684,15.26611-42.41113,32.67725-56.75049l48.26465-39.74805,5.08594,6.17578-48.26465,39.74805c-15.91504,13.10693-26.52295,31.5293-29.86963,51.87354-4.93066,29.97607,6.62793,60.52979,30.16406,79.73682l54.86084,44.77051-5.05762,6.19824Z"/> <path class="n" d="M35.55322,252.70264c3.94922,4.80225,9.68555,7.28809,15.46484,7.28809,4.47217,0,8.97021-1.48828,12.68555-4.54395l71.05939-58.43445,12.70331,15.44763,6.17871-5.08105-11.39105-13.85193,21.06976-6.13489c21.49365-6.25732,41.15869-16.64014,58.44922-30.85889l10.29443-8.46533c37.10693-30.51465,58.95117-75.56396,59.93164-123.59619,.04297-2.08984-1.53076-3.85986-3.61084-4.0625-22.8501-2.23047-45.19531,4.57617-62.92529,19.15625L121.91846,124.71436c-.25293,.20752-.479,.44531-.67334,.7085l-16.58545,22.38818-11.99023-14.58057-6.17871,5.08105,12.70343,15.44788L28.13525,212.19385c-8.51758,7.00439-9.74902,19.63281-2.74463,28.15088l10.1626,12.35791ZM283.87793,28.0957c-1.97021,44.27002-22.56689,85.56641-56.8916,113.79346l-10.29443,8.46533c-16.44922,13.52637-35.15723,23.40381-55.60449,29.35693l-24.36127,7.09326-9.71594-11.81494,21.06989-6.13477c21.49268-6.25732,41.1582-16.63965,58.44922-30.85889l10.29395-8.46533c30.90527-25.41455,51.4502-61.15967,57.84961-100.65186,.00732-.04248,.01367-.08545,.01904-.12891l.07239-.56177c3.01624-.19922,6.05603-.245,9.11365-.09253ZM127.37988,130.58057L230.54395,45.74414c10.53741-8.66467,22.87732-14.28613,35.95929-16.57422-6.37299,36.94568-25.77057,70.3418-54.76105,94.18213l-10.29395,8.46533c-16.44971,13.52686-35.15771,23.40381-55.60449,29.35693l-24.36151,7.09326-11.5849-14.08765,17.48254-23.59937Zm-53.30988,105.98438l-25.40631-30.89526,55.61169-45.7312,25.40625,30.89502-55.61163,45.73145Zm-40.8537-18.19238l9.26868-7.62183,25.40631,30.89526-9.26874,7.62207c-5.11084,4.20215-12.68799,3.46436-16.89062-1.64648l-10.16211-12.35791c-4.20264-5.11084-3.46387-12.68799,1.64648-16.89111Z"/> <path class="n" d="M408,324c-46.31787,0-84,37.68213-84,84s37.68213,84,84,84,84-37.68213,84-84-37.68213-84-84-84Zm0,160c-41.90674,0-76-34.09326-76-76s34.09326-76,76-76,76,34.09326,76,76-34.09326,76-76,76Z"/> <path class="n" d="M439.73828,361.98291c-.14502-1.21777-.84033-2.30127-1.88672-2.94092-8.96875-5.479-19.29102-8.37549-29.85156-8.37549-31.61377,0-57.3335,25.71973-57.3335,57.3335,0,10.56055,2.89648,20.88281,8.37549,29.85156,.63965,1.04639,1.72314,1.7417,2.94092,1.88672,.15771,.01855,.31592,.02783,.47314,.02783,1.0542,0,2.07324-.41699,2.82812-1.17139l73.31055-73.31055c.8667-.86719,1.28809-2.08398,1.14355-3.30127Zm-76.3208,67.16455c-3.11963-6.57373-4.75098-13.79248-4.75098-21.14746,0-27.20264,22.13086-49.3335,49.3335-49.3335,7.35498,0,14.57373,1.63135,21.14746,4.75098l-65.72998,65.72998Z"/> <path class="n" d="M456.95801,378.14844c-.63965-1.04639-1.72314-1.7417-2.94092-1.88672-1.21484-.14258-2.43359,.27637-3.30127,1.14355l-73.31055,73.31055c-.8667,.86719-1.28809,2.08398-1.14355,3.30127,.14502,1.21777,.84033,2.30127,1.88672,2.94092,8.96875,5.479,19.29102,8.37549,29.85156,8.37549,31.61377,0,57.3335-25.71973,57.3335-57.3335,0-10.56055-2.89648-20.88281-8.37549-29.85156Zm-48.95801,79.18506c-7.35498,0-14.57373-1.63135-21.14746-4.75098l65.72998-65.72998c3.11963,6.57373,4.75098,13.79248,4.75098,21.14746,0,27.20264-22.13086,49.3335-49.3335,49.3335Z"/> <path class="n" d="M282.32373,266.36426c9.81018,7.23999,23.28412,7.23242,33.10132,.06567l43.45581,56.02173,6.32129-4.90332-19.13708-24.6709,34.99207-35.47754c20.13477-20.41406,19.90771-53.40332-.50684-73.5376l-8.54364-8.42651,64.60419-65.50073c.43604-.44238,.76318-.97998,.95557-1.57031l11.0791-34.01807c.46924-1.44043,.08447-3.02295-.99414-4.08643l-2.84808-2.80908,14.04437-14.23975c1.55127-1.57275,1.53418-4.10498-.03857-5.65625l-28.47852-28.08838c-1.57178-1.55127-4.10547-1.53418-5.65674,.03857l-14.04456,14.2395-8.54333-8.42651c-.74902-.73877-1.75781-1.15234-2.80908-1.15234h-.02734c-1.06104,.00732-2.07568,.43604-2.82031,1.19092L190.36377,234.28223c-5.62549,5.7041-7.30469,14.18262-4.27832,21.60059l15.75635,38.61768c2.56299,6.28125,8.06982,10.79785,14.73096,12.08252l18.25928,3.521,72.65088,100.24316,6.47754-4.69434-71.59064-98.78027,39.95392-40.5083Zm92.60889-76.80664c8.36768,8.25342,13.02051,19.271,13.10156,31.02344s-4.41943,22.8335-12.67236,31.20068l-34.24341,34.71851-21.10327-27.20581-.21338-30.9292,8.84955-8.97241c6.362,.39893,12.19806,3.43323,16.19635,8.48267,4.33203,5.46924,5.87256,12.49512,4.22705,19.27539l-2.99707,12.34814,7.77441,1.88672,2.99707-12.34814c2.23047-9.19092,.14209-18.71484-5.72998-26.12891-4.06439-5.13257-9.53003-8.72559-15.6452-10.43311l30.91534-31.34448,8.54333,8.42651ZM427.56055,27.97119l22.78271,22.4707-11.23529,11.39185-22.78296-22.47119,11.23553-11.39136ZM231.01782,238.6344l-17.08698-16.85339,11.23553-11.39136,17.0871,16.85303-11.23566,11.39172Zm16.85345-17.0874l-17.08716-16.85315,11.23523-11.39124,17.08716,16.85315-11.23523,11.39124Zm-51.81171,18.35339l12.25354-12.42358,17.08691,16.85327-25.03253,25.38-6.87482-16.84973c-1.81592-4.45068-.80811-9.53809,2.56689-12.95996Zm13.18945,51.57764l-5.59344-13.70911L408.0542,70.5332l-5.69531-5.61816-137.63464,139.54492-17.0871-16.85303L399.31592,33.82275l40.95752,40.39697-10.021,30.76953-117.30957,118.9375c-.74512,.75537-1.15967,1.77588-1.15234,2.83643l.22174,32.17554c-3.59528,3.11914-8.12604,4.85059-12.93707,4.88403-5.31689,.02881-10.37891-2.00928-14.18164-5.76025-1.57324-1.55176-4.10596-1.53418-5.65674,.03857l-43.43878,44.04199-17.71063-3.41553c-3.99658-.77051-7.30078-3.48096-8.83838-7.24951Z"/> <rect class="n" height="7.99934" transform="translate(-123.48824 249.83191) rotate(-45.39568)" width="16.00005" x="228.90866" y="268.53598"/> <rect class="n" height="8.00002" transform="translate(-100.57656 259.01455) rotate(-45.3907)" width="15.99971" x="251.37954" y="245.75267"/> <path class="n" d="M429.09668,194.93506l-7.31055,46.30029c-.16553,1.04785,.09229,2.11865,.71631,2.97656l4.30176,5.91504-5.91504,4.30176c-.85791,.62402-1.43311,1.56299-1.59863,2.61084l-2.49512,15.8042c-.34424,2.18213,1.14502,4.23047,3.32715,4.5752l47.4126,7.48633c.20801,.03271,.4165,.04883,.62402,.04883,.83984,0,1.66455-.26465,2.35254-.76514,.85791-.62402,1.43311-1.56299,1.59863-2.61084l2.49512-15.80469c.16553-1.04736-.09229-2.11816-.71631-2.97607l-4.30176-5.91504,5.91504-4.30176c.85791-.62402,1.43311-1.56299,1.59863-2.61084l7.31055-46.30127c1.88135-11.91699-2.29199-23.91211-11.16309-32.08691l-8.61719-7.94141c-1.1875-1.09375-2.9165-1.36816-4.3833-.69189l-10.64551,4.8999c-10.95898,5.04492-18.62451,15.1709-20.50586,27.08691Zm35.73535,81.44434l-39.51074-6.23877,1.61328-10.2168,6.46936-4.70508,28.33594,4.47412,4.70496,6.46973-1.61279,10.2168Zm-3.66162-105.04932l6.65674,6.13428c6.8999,6.3584,10.14551,15.68799,8.68213,24.95654l-7.05225,44.66455-6.46936,4.70508-28.33594-4.47412-4.70496-6.46973,7.05225-44.66406c1.46289-9.26807,7.42529-17.14355,15.94873-21.06787l8.22266-3.78467Z"/> <path class="h" d="M229.39557,432.68115l24.98108-20.57312c-.4776-2.99719-1.06287-5.97302-1.74799-8.92468l-27.93311,23.00415-14.09906-19.47949,33.78833-27.82642c-1.13129-2.49292-2.33624-4.95508-3.6264-7.37769l-34.86194,28.71057-14.09906-19.47937,35.67841-29.38293c-.36279-.45276-.72009-.90906-1.08942-1.35754l-3.97961-4.83228-35.30939,29.0791-14.09906-19.47949,34.14886-28.12354c-1.70636-2.06445-3.47522-4.06274-5.29425-6.00415l-110.73511,91.19653c1.55658,2.15747,3.17877,4.27661,4.87781,6.34717l34.14917-28.12378,16.41479,17.57227-35.30963,29.07922,3.97968,4.83228c.36932,.44836,.74866,.8866,1.12341,1.32947l35.67853-29.38318,16.41486,17.57214-34.86218,28.71082c2.13031,1.73071,4.3158,3.38538,6.54565,4.97375l33.78851-27.82666,16.41486,17.57227-27.93335,23.00439c2.76556,1.23828,5.57404,2.3833,8.42395,3.42664l24.98138-20.57336,19.15088,20.50122,3.09491-2.54883,2.92157-2.72925-18.98022-20.31848,21.21588-17.47229,16.30243,22.52368,3.23944-2.34473,3.09436-2.54834-16.44897-22.72607Zm-93.0636-47.72241l30.47913-25.10107,14.09906,19.47937-28.16339,23.19397-16.41479-17.57227Zm21.88684,23.43005l27.39136-22.55823,14.09906,19.47949-25.07562,20.651-16.41479-17.57227Zm38.30164,41.00232l-16.41479-17.57227,24.30359-20.01526,14.09906,19.47937-21.98785,18.10815Z"/> <path class="n" d="M229.47412,347.45166l-19.09131-23.18164c-25.25177-30.66211-62.35504-48.17236-101.96436-48.3053l-16.60498-20.1626,15.43848-12.71423-5.08594-6.17578-48.26465,39.74805c-17.41113,14.33936-29.01611,34.49365-32.67725,56.75049-5.39453,32.79492,7.25049,66.2207,33,87.23389l54.86084,44.77051,5.05762-6.19824-54.86084-44.77051c-23.53613-19.20703-35.09473-49.76074-30.16406-79.73682,2.60956-15.86328,9.65076-30.5448,20.16364-42.46228l15.90875,19.31702c-7.48572,38.9259,2.60809,78.67175,27.86023,109.33521l19.09131,23.18164c22.95508,27.87256,56.76514,45.49121,92.76074,48.3374,.13916,.01123,.27832,.0166,.4165,.0166,1.20215,0,2.35938-.41357,3.29541-1.18457l48.65527-40.0708c1.04639-.86035,1.70752-2.0752,1.86133-3.42041,4.10742-35.87402-6.70215-72.43457-29.65674-100.30762Zm-32.95374,101.93933l-16.41473-17.57214,24.30353-20.01526,14.09906,19.47937-21.98785,18.10803Zm26.68787-11.61438l14.09918,19.47949-18.89996,15.56519-16.4151-17.57251,21.21588-17.47217Zm-32.875,16.70972l-24.4295,20.1189c-7.91278-3.39929-15.47369-7.5957-22.54248-12.52539l30.55725-25.16553,16.41473,17.57202Zm-23.52203-94.62854l14.09894,19.47925-28.16339,23.19397-16.41467-17.57202,30.47913-25.1012Zm18.79895,25.97278l14.099,19.47949-25.07556,20.651-16.41486-17.57227,27.39142-22.55823Zm24.98627,20.87744l30.55707-25.16528c3.48303,7.88281,6.15192,16.10828,7.97119,24.52612l-24.4292,20.11865-14.09906-19.47949Zm26.98041-32.58398l-31.68042,26.09045-14.09894-19.47937,32.59033-26.83972c5.06195,6.32605,9.47089,13.10754,13.18903,20.22864Zm-18.25793-26.41846l-32.2215,26.53589-14.09894-19.47925,31.06104-25.58032c.04858,.05859,.09906,.11523,.14752,.17407l15.11188,18.34961Zm-133.68109-86.8175l15.25769,18.52551-30.87695,25.4292-15.13196-18.37427c1.32928-1.24646,2.68622-2.46765,4.10071-3.63257l26.65051-21.94788Zm-12.5094,51.75732l14.32635-11.79858,10.35248,12.57068c-4.06274,4.44409-6.57306,10.05444-7.16321,16.1543-.72021,7.44434,1.50146,14.72314,6.25586,20.49658,5.5293,6.71387,13.55322,10.18799,21.63867,10.18799,6.26709,0,12.57178-2.08838,17.77588-6.37402,11.91748-9.81494,13.62842-27.49609,3.81348-39.41455-8.95312-10.86938-24.44415-13.24292-36.14166-6.13232l-10.35583-12.57471,14.32758-11.79956c34.67719-.02527,67.25604,14.13672,90.80377,39.21924l-104.55237,86.10449c-20.10077-27.92285-27.74286-62.62756-21.08099-96.63953Zm25.47852,17.6969c.51465-5.31738,3.06885-10.11621,7.19287-13.51221,3.61475-2.97705,8.05518-4.56396,12.67822-4.56396,.65039,0,1.30615,.03174,1.96191,.09521,5.31738,.51416,10.11621,3.06885,13.51221,7.19238,7.00928,8.51318,5.78857,21.14258-2.72363,28.15283-4.12354,3.39648-9.32178,4.98535-14.64062,4.46875-5.31738-.51465-10.11621-3.06885-13.51221-7.19287-3.39648-4.12354-4.9834-9.32275-4.46875-14.64014Zm.47644,85.29297l31.06158-25.58081,16.41467,17.57202-32.22198,26.53625-15.11157-18.34924c-.04846-.05884-.09436-.11938-.1427-.17822Zm20.35742,24.68909l32.59082-26.84021,16.41492,17.57239-31.68066,26.0907c-6.27631-5.01465-12.08679-10.64185-17.32507-16.82288Zm84.96838,44.02527c-10.25653-.90564-20.31378-3.09131-29.94763-6.42786l21.34369-17.57751,16.4151,17.57251-7.81116,6.43286Zm46.89697-38.62207l-7.81146,6.43311-14.09918-19.47949,21.34344-17.57739c1.42749,10.09448,1.64453,20.38403,.5672,30.62378Z"/> </g> </g> <g id="d"/> </g>
</svg>