<?xml version="1.0" encoding="iso-8859-1"?>
<!-- Uploaded to: SVG Repo, www.svgrepo.com, Generator: SVG Repo Mixer Tools -->
<svg height="800px" width="800px" version="1.1" id="Layer_1" xmlns="http://www.w3.org/2000/svg" xmlns:xlink="http://www.w3.org/1999/xlink" 
	 viewBox="0 0 447.8 447.8" xml:space="preserve">
<g transform="translate(0 -1020.36)">
	<g shape-rendering="auto" image-rendering="auto" color-rendering="auto" color-interpolation="sRGB">
		<path style="fill:#5A3392;" d="M400.7,1020.371c6.079,0.608,9.27,7.517,5.781,12.531L295.95,1192.838v41.783
			c-20.533-14.016-45.339-22.25-72.031-22.25c-26.708-0.002-51.522,8.25-72.063,22.279v-41.748l-110.562-160
			c-3.653-5.321,0.181-12.556,6.625-12.531h95.906c0.242-0.015,0.544-0.015,0.81,0c2.352,0.24,4.469,1.552,5.781,3.531
			l73.531,108.063l73.406-108.063c1.488-2.201,3.967-3.524,6.625-3.531h95.906c0.242-0.015,0.544-0.015,0.81,0H400.7z"/>
		<path style="fill:#29A3EC;" d="M384.637,1036.131h-76.406l-74.594,109.873l23.25,34.221h28.157L384.637,1036.131L384.637,1036.131
			z"/>
		<path style="fill:#3CDEF6;" d="M139.574,1036.131H63.137l99.593,144.094h74.781L139.574,1036.131L139.574,1036.131z"/>
		<path style="fill:#EE746C;" d="M279.887,1196.193H167.919v29.094c16.938-8.27,35.877-13.031,55.968-13.031
			c20.096,0,39.059,4.76,56,13.031V1196.193z"/>
		<path style="fill:#FFFFFF;" d="M223.887,1228.193c-61.95,0-111.968,50.018-111.968,111.969
			c-0.001,61.951,50.018,112.094,111.968,112.094c61.951,0,111.969-50.145,111.969-112.094
			C335.856,1278.211,285.837,1228.193,223.887,1228.193L223.887,1228.193z"/>
		<path style="fill:#EBFEFF;" d="M223.887,1233.144c-59.213,0-107.021,47.809-107.021,107.021
			c-0.001,59.213,47.808,107.143,107.021,107.143c59.214,0,107.022-47.93,107.022-107.143S283.1,1233.144,223.887,1233.144
			L223.887,1233.144z"/>
		<path style="fill:#EE746C;" d="M223.895,1264.691c-41.817,0.002-75.585,33.645-75.586,75.463
			c0,41.816,33.769,75.586,75.586,75.586c41.817,0,75.586-33.77,75.586-75.586C299.481,1298.336,265.712,1264.691,223.895,1264.691
			L223.895,1264.691z"/>
		<path style="fill:#FB9761;" d="M223.895,1275.65c-35.748,0.002-64.616,28.764-64.617,64.51c0,35.748,28.868,64.615,64.617,64.615
			c35.748,0.002,64.617-28.867,64.617-64.615C288.511,1304.412,259.644,1275.65,223.895,1275.65L223.895,1275.65z"/>
		<path style="fill:#5A3392;" d="M225.431,1292.084c2.707,0.475,4.981,2.303,6.023,4.846l9.803,23.15l27.283,2.836
			c4.397,0.438,7.608,4.355,7.171,8.752c-0.211,2.125-1.262,4.076-2.92,5.422l-19.842,16.063l5.551,25.512
			c0.901,4.326-1.875,8.563-6.201,9.465c-1.962,0.408-4.006,0.064-5.728-0.961l-22.323-13.348l-23.858,13.229
			c-3.884,2.105-8.741,0.664-10.847-3.219c-0.955-1.762-1.214-3.814-0.728-5.758l6.142-24.094l-20.197-17.482
			c-3.352-2.879-3.735-7.932-0.855-11.283c1.409-1.639,3.421-2.639,5.578-2.771l26.221-1.771l11.102-23.977
			c1.493-3.318,5.037-5.211,8.625-4.607L225.431,1292.084z"/>
		<path style="fill:#3CDEF6;" d="M223.78,1319.723l-5.551,11.93c-1.234,2.65-3.815,4.418-6.732,4.607l-11.575,0.832l9.331,8.031
			c2.279,1.992,3.239,5.102,2.479,8.031l-2.836,10.986l11.693-6.496c2.481-1.346,5.489-1.285,7.913,0.16l10.512,6.262l-2.715-12.285
			c-0.656-2.938,0.394-5.996,2.715-7.912l8.622-6.969l-12.756-1.297c-2.884-0.318-5.369-2.172-6.496-4.846l-4.608-10.984
			L223.78,1319.723z"/>
		<path style="fill:#FB9761;" d="M268.669,1199.109h-89.532v23.264c13.544-6.613,28.688-10.42,44.753-10.42
			c16.069,0,31.233,3.811,44.779,10.42V1199.109z"/>
		<g>
			<path style="fill:#5A3392;" d="M220.306,1212.25c44.54-1.217,87.955,20.949,112.5,60.688
				c32.726,52.986,22.493,121.963-24.188,163.188c-46.68,41.225-116.406,42.84-164.938,3.813c-3.437-2.777-3.972-7.816-1.194-11.252
				c2.769-3.428,7.787-3.971,11.225-1.217c42.544,34.213,103.391,32.826,144.313-3.313c40.922-36.137,49.845-96.365,21.156-142.813
				c-28.689-46.447-86.522-65.443-137.156-45.031c-50.635,20.412-79.138,74.203-67.594,127.563c1.127,4.273-1.424,8.65-5.696,9.775
				c-4.273,1.127-8.65-1.424-9.776-5.695c-0.061-0.232-0.112-0.469-0.152-0.705c-13.169-60.869,19.489-122.498,77.25-145.781
				C190.497,1215.648,205.459,1212.658,220.306,1212.25z"/>
			<path style="fill:#5A3392;" d="M115.9,1385.187c3.208-0.135,6.186,1.662,7.563,4.563c3.234,6.553,7.117,12.793,11.563,18.594
				c2.684,3.512,2.012,8.535-1.5,11.219s-8.535,2.012-11.219-1.5l0,0c-5.081-6.629-9.492-13.73-13.188-21.219
				c-2.023-3.928-0.478-8.754,3.451-10.775C113.603,1385.537,114.739,1385.236,115.9,1385.187z"/>
			<path style="fill:#5A3392;" d="M231.119,1252.437c42.412,3.494,76.326,36.982,80.375,79.344c0.424,4.4-2.8,8.313-7.201,8.736
				s-8.312-2.801-8.736-7.201c-3.322-34.756-30.954-62.039-65.75-64.906c-34.796-2.865-66.535,19.508-75.5,53.25
				c-8.965,33.742,7.464,68.938,39.094,83.719c31.63,14.783,69.178,4.836,89.313-23.686c2.39-3.717,7.34-4.793,11.057-2.402
				c3.717,2.391,4.792,7.34,2.402,11.057c-0.124,0.193-0.256,0.381-0.396,0.563c-24.541,34.766-70.572,46.986-109.125,28.969
				s-58.739-61.184-47.813-102.313c10.927-41.129,49.87-68.619,92.281-65.127V1252.437z"/>
		</g>
	</g>
	<path style="fill:#5A3392;" d="M293.537,1359.562c0,4.418,3.582,8,8,8l0,0c4.418,0,8-3.582,8-8l0,0c0-4.418-3.582-8-8-8l0,0
		C297.119,1351.562,293.537,1355.144,293.537,1359.562L293.537,1359.562z"/>
</g>
</svg>