<?xml version="1.0" encoding="iso-8859-1"?>
<!-- Uploaded to: SVG Repo, www.svgrepo.com, Generator: SVG Repo Mixer Tools -->
<svg height="800px" width="800px" version="1.1" id="Layer_1" xmlns="http://www.w3.org/2000/svg" xmlns:xlink="http://www.w3.org/1999/xlink" 
	 viewBox="0 0 448.005 448.005" xml:space="preserve">
<g transform="translate(0 -1020.36)" shape-rendering="auto" image-rendering="auto" color-rendering="auto" color-interpolation="sRGB">
	<path style="fill:#5A3392;" d="M223.565,1116.434c-1.298,0.092-2.553,0.498-3.659,1.184L9.969,1244.555
		c-0.603-0.152-1.222-0.232-1.844-0.24c-4.418-0.051-8.041,3.49-8.091,7.91c-0.006,0.555,0.045,1.107,0.153,1.652
		c-0.07,0.391-0.11,0.787-0.121,1.184v65.314c0,2.717,1.377,5.246,3.659,6.721l215.906,139.967c2.658,1.736,6.092,1.736,8.75,0
		l215.906-139.967c2.281-1.475,3.659-4.004,3.659-6.721v-65.314c-0.008-0.533-0.068-1.063-0.181-1.584l0,0
		c0.576-4.387-2.513-8.408-6.898-8.984c-0.951-0.125-1.917-0.078-2.852,0.139l-209.906-127c-1.377-0.85-2.979-1.264-4.596-1.184
		L223.565,1116.434z"/>
	<path style="fill:#46A3D3;" d="M224.034,1133.777l198.844,120.346l-198.844,132.656L25.159,1254.092L224.034,1133.777
		L224.034,1133.777z"/>
	<path style="fill:#EE746C;" d="M16.065,1267.311l203.469,135.779c2.687,1.791,6.188,1.791,8.876,0l203.5-135.717v48.656
		l-207.875,134.873L16.065,1316.029L16.065,1267.311L16.065,1267.311z"/>
	<path style="fill:#5A3392;" d="M223.09,1020.405c-4.116,0.473-7.191,4.009-7.086,8.15v95.788c-0.372,4.402,2.896,8.273,7.299,8.646
		c4.403,0.371,8.274-2.896,8.646-7.299c0.038-0.449,0.038-0.898,0-1.348v-95.787c0.108-4.417-3.385-8.086-7.802-8.194
		C223.793,1020.354,223.441,1020.368,223.09,1020.405L223.09,1020.405z"/>
	<path style="fill:#3CDEF6;" d="M224.033,1144.385l182.171,110.252L224.033,1376.17l-182.2-121.563l182.2-110.225V1144.385z"/>
	<g>
		<path style="fill:#5A3392;" d="M9.261,1204.615c-8.07-0.16-11.196,10.455-4.372,14.766l214.655,143.664
			c2.683,1.783,6.175,1.783,8.858,0l214.656-143.539c10.411-5.547,0.236-20.742-8.859-13.229l-210.167,140.469L13.747,1206.033
			c-1.319-0.912-2.882-1.408-4.487-1.424L9.261,1204.615z"/>
		<path style="fill:#5A3392;" d="M223.444,1076.389c-1.258,0.16-2.472,0.512-3.544,1.184L4.933,1204.799
			c-9.213,5.434-1.064,19.252,8.149,13.818l210.952-124.863l210.709,124.807c9.447,6.793,18.627-8.641,8.15-13.701L228.05,1077.572
			c-1.38-0.848-2.987-1.264-4.608-1.184H223.444z"/>
		<path style="fill:#5A3392;" d="M438.996,1148.438c-4.07,0.469-7.129,3.936-7.087,8.031v103.938
			c0.004,4.436,3.603,8.027,8.038,8.025c4.43-0.004,8.021-3.596,8.024-8.025v-103.938c0.05-4.418-3.492-8.041-7.91-8.09
			C439.705,1148.375,439.349,1148.395,438.996,1148.438z"/>
		<path style="fill:#5A3392;" d="M7.185,1148.438c-4.07,0.469-7.129,3.936-7.087,8.031v103.938c-0.37,4.402,2.899,8.273,7.303,8.643
			c4.403,0.371,8.273-2.898,8.643-7.303c0.037-0.445,0.037-0.895,0-1.34v-103.938c0.042-4.418-3.505-8.035-7.924-8.076
			C7.807,1148.389,7.495,1148.404,7.185,1148.438z"/>
		<path style="fill:#5A3392;" d="M223.917,1276.35c-4.418,0.047-7.962,3.668-7.914,8.086c0,0.021,0.001,0.041,0.001,0.063v103.938
			c-0.372,4.402,2.896,8.273,7.299,8.646c4.403,0.371,8.274-2.896,8.646-7.299c0.038-0.449,0.038-0.898,0-1.348v-103.938
			c0.082-4.418-3.434-8.066-7.852-8.146C224.037,1276.35,223.977,1276.35,223.917,1276.35L223.917,1276.35z"/>
		<path style="fill:#5A3392;" d="M219.901,1037.531L3.996,1165.563l-0.363,13.465l215.905,143.977h8.858l216.024-143.977
			l-0.363-13.465L228.033,1037.53h-8.149L219.901,1037.531z M224.037,1053.713l201.024,119.055l-201.024,134.057L23.014,1172.768
			L224.037,1053.713L224.037,1053.713z"/>
	</g>
	<path style="fill:#FB9761;" d="M29.987,1277.711l189.845,121.291c2.507,1.6,5.774,1.6,8.281,0l189.874-121.234v43.465
		l-193.956,120.48l-194.045-120.48v-43.52L29.987,1277.711z"/>
	<path style="fill:#5A3392;" d="M8.812,1244.998c-7.988,0-11.082,10.379-4.375,14.719l215.168,143.318
		c2.687,1.791,6.188,1.791,8.875,0l215.344-143.875c9.133-5.863,0.05-19.488-8.875-13.313l-210.906,140.906l-210.73-140.35
		c-1.325-0.912-2.893-1.408-4.5-1.408V1244.998z"/>
	<path style="fill:#FFFFFF;" d="M152.696,1196.035c-1.249,0.076-2.463,0.443-3.544,1.072l-20.787,12.164
		c-3.826,2.232-5.118,7.145-2.885,10.971s7.145,5.117,10.971,2.885c0.021-0.012,0.043-0.025,0.064-0.037l20.669-12.164
		c3.81-2.23,5.09-7.129,2.859-10.938c-1.515-2.59-4.352-4.111-7.346-3.943L152.696,1196.035z"/>
</g>
</svg>