<?xml version="1.0" encoding="iso-8859-1"?>
<!-- Uploaded to: SVG Repo, www.svgrepo.com, Generator: SVG Repo Mixer Tools -->
<svg height="800px" width="800px" version="1.1" id="Layer_1" xmlns="http://www.w3.org/2000/svg" xmlns:xlink="http://www.w3.org/1999/xlink" 
	 viewBox="0 0 352.62 352.62" xml:space="preserve">
<g transform="translate(0 -1020.36)" shape-rendering="auto" image-rendering="auto" color-rendering="auto" color-interpolation="sRGB">
	<g>
		<path style="fill:#5A3392;" d="M7.54,1020.36c-4.087,0.4-7.206,3.832-7.219,7.938v262.031h24.813v40H0.322v33.377v0.465
			c-0.001,0.086-0.001,0.17,0,0.256c-0.008,0.207-0.008,0.416,0,0.623c-0.001,0.074-0.001,0.15,0,0.225
			c0.034,0.209,0.077,0.418,0.128,0.623c0.038,0.156,0.081,0.311,0.128,0.465c-0.001,0.086-0.001,0.17,0,0.256
			c0.041,0.086,0.084,0.172,0.128,0.256c0.065,0.199,0.138,0.398,0.219,0.592c-0.001,0.086-0.001,0.17,0,0.256
			c0.078,0.158,0.161,0.313,0.25,0.465c0.115,0.213,0.24,0.422,0.374,0.623c0.042,0.055,0.085,0.107,0.128,0.16
			c0.031,0.055,0.063,0.107,0.096,0.16c0.118,0.17,0.243,0.336,0.374,0.496c0.041,0.086,0.084,0.172,0.128,0.256
			c0.121,0.115,0.246,0.229,0.374,0.336c0.071,0.086,0.144,0.172,0.219,0.256c0.162,0.119,0.329,0.23,0.499,0.336
			c0.081,0.088,0.165,0.172,0.25,0.256c0.112,0.088,0.227,0.174,0.344,0.256c0.082,0.055,0.165,0.107,0.25,0.16
			c0.153,0.09,0.31,0.176,0.469,0.256c0.082,0.055,0.165,0.107,0.25,0.16c0.163,0.092,0.33,0.176,0.499,0.256
			c0.072,0.055,0.145,0.107,0.219,0.16c0.165,0.059,0.332,0.111,0.501,0.16c0.082,0.055,0.165,0.107,0.25,0.16
			c0.196,0.061,0.394,0.115,0.594,0.16c0.083,0.002,0.166,0.002,0.25,0c0.196,0.061,0.394,0.115,0.594,0.16
			c0.083,0.002,0.166,0.002,0.25,0c0.437,0.035,0.875,0.035,1.312,0h31.156c4.419,0.018,8.014-3.551,8.031-7.971
			c0-0.02,0-0.041,0-0.061c-0.128-45.371-0.016-90.766,0.064-136.156h295.625c4.419,0.018,8.014-3.551,8.031-7.971
			c0-0.02,0-0.041,0-0.061v-175.873c0.017-4.418-3.552-8.014-7.97-8.031c-0.02,0-0.041,0-0.061,0H48.461
			c-0.014-2.648,0.016-5.291,0-7.938c-0.052-4.395-3.637-7.924-8.031-7.906h-32c-0.229-0.01-0.459-0.01-0.688,0l-0.187-0.225
			L7.54,1020.36z"/>
		<path style="fill:#3CDEF6;" d="M96.353,1052.485h64v39.938c-0.017,4.418,3.552,8.014,7.97,8.031c0.02,0,0.041,0,0.061,0h47.969
			c4.419,0.018,8.014-3.551,8.031-7.971c0-0.02,0-0.041,0-0.061v-39.938h63.906v39.938c-0.017,4.418,3.552,8.014,7.97,8.031
			c0.02,0,0.041,0,0.061,0h39.906v63.906h-39.906c-4.419-0.018-8.014,3.551-8.031,7.971c0,0.02,0,0.041,0,0.061v40.031h-63.906
			v-40.031c0.017-4.418-3.552-8.014-7.97-8.031c-0.02,0-0.041,0-0.061,0h-47.969c-4.419-0.018-8.014,3.551-8.031,7.971
			c0,0.02,0,0.041,0,0.061v40.031h-64v-40.031c0.017-4.418-3.552-8.014-7.97-8.031c-0.02,0-0.041,0-0.061,0h-39.75
			c0.005-21.299-0.018-42.602-0.06-63.906h39.812c4.419,0.018,8.014-3.551,8.031-7.971c0-0.02,0-0.041,0-0.061v-39.938H96.353z"/>
	</g>
	<path style="fill:#5A3392;" d="M232.341,1100.438c-4.418,0-8,3.582-8,8v48c0,4.418,3.582,8,8,8h48c4.418,0,8-3.582,8-8v-48
		c0-4.418-3.582-8-8-8H232.341z"/>
	<path style="fill:#29A3EC;" d="M240.341,1116.438h32v32h-32V1116.438z"/>
	<path style="fill:#5A3392;" d="M104.466,1100.438c-4.418,0-8,3.582-8,8v48c0,4.418,3.582,8,8,8h48c4.418,0,8-3.582,8-8v-48
		c0-4.418-3.582-8-8-8H104.466z"/>
	<path style="fill:#29A3EC;" d="M112.466,1116.438h32v32h-32V1116.438z"/>
	<g>
		<path style="fill:#FFFFFF;" d="M16.29,1036.329h15.938c0.544,106.654-0.181,213.287,0.121,320.064H16.286v-320.064H16.29z"/>
		<g>
			<path style="fill:#29A3EC;" d="M48.478,1052.485h31.937v31.906H48.509C48.48,1073.753,48.521,1063.122,48.478,1052.485
				L48.478,1052.485z"/>
			<path style="fill:#29A3EC;" d="M176.321,1052.485h32v31.906h-32V1052.485z"/>
			<path style="fill:#29A3EC;" d="M304.353,1052.485h31.875v31.906h-31.875V1052.485z"/>
			<path style="fill:#29A3EC;" d="M48.603,1180.424h31.812v31.998H48.634C48.654,1201.758,48.595,1191.089,48.603,1180.424
				L48.603,1180.424z"/>
			<path style="fill:#29A3EC;" d="M176.321,1180.424h32v31.998h-32V1180.424z"/>
			<path style="fill:#29A3EC;" d="M304.353,1180.424h31.875v31.998h-31.875V1180.424z"/>
		</g>
	</g>
</g>
</svg>