<?xml version="1.0" ?>
<!-- Uploaded to: SVG Repo, www.svgrepo.com, Generator: SVG Repo Mixer Tools -->
<svg width="800px" height="800px" viewBox="0 0 64 64" enable-background="new 0 0 64 64" id="Filled_Outline_00000081607312705973271110000009714898175699931553_" version="1.1" xml:space="preserve" xmlns="http://www.w3.org/2000/svg" xmlns:xlink="http://www.w3.org/1999/xlink">
<g>
<g>
<path d="M41,17h-0.1c-2.705-1.27-5.714-2-8.9-2s-6.195,0.73-8.9,2H23C10.85,17,1,26.85,1,39v0    c0,12.15,9.85,22,22,22h0.1c2.705,1.27,5.714,2,8.9,2s6.195-0.73,8.9-2H41c12.15,0,22-9.85,22-22v0C63,26.85,53.15,17,41,17z" fill="#FF6D1F"/>
<path d="M21,4L21,4c0,1.657,1.343,3,3,3h0c2.761,0,5,2.239,5,5v3h6v-3c0-6.075-4.925-11-11-11h0    C22.343,1,21,2.343,21,4z" fill="#A69D24"/>
<path d="M23,45L23,45l0,4h6v-4h6l0,4h6v-4h0c3.314,0,6,2.686,6,6v0c0,2.181-1.772,3.951-3.953,3.939    c-0.752-0.004-1.48-0.002-2.047,0.012C39,55,36.836,53,32,53s-7,2-9,2h-2c-2.209,0-4-1.791-4-4v0C17,47.686,19.686,45,23,45z     M41,35c5,0,6-6,6-6s-2,2-6,2s-6-2-6-2S36,35,41,35z M23,35c5,0,6-6,6-6s-2,2-6,2s-6-2-6-2S18,35,23,35z" fill="#732002"/>
<path d="M41,41c-1.105,0-2-0.895-2-2c0-2,2-4,2-4s2,2,2,4C43,40.105,42.105,41,41,41z M25,39c0-2-2-4-2-4s-2,2-2,4    c0,1.105,0.895,2,2,2S25,40.105,25,39z" fill="#66EAFF"/>
</g>
<g>
<path d="M41,44c-0.552,0-1,0.448-1,1v3h-4v-3c0-0.552-0.448-1-1-1h-6c-0.552,0-1,0.448-1,1v3h-4v-3    c0-0.552-0.448-1-1-1c-3.86,0-7,3.14-7,7c0,2.757,2.243,5,5,5h2c0.966,0,1.875-0.345,2.929-0.744C27.404,54.696,29.24,54,32,54    c2.726,0,4.552,0.679,6.019,1.225c1.082,0.403,2.028,0.764,3.005,0.725c0.56-0.012,1.276-0.016,2.018-0.011    c1.271-0.004,2.563-0.501,3.501-1.434C47.482,53.57,48,52.326,48,51C48,47.14,44.86,44,41,44z M45.132,53.087    c-0.557,0.554-1.266,0.89-2.08,0.852c-0.763-0.004-1.501-0.002-2.077,0.012c-0.615-0.007-1.335-0.257-2.259-0.601    C37.185,52.781,35.086,52,32,52c-3.126,0-5.238,0.801-6.78,1.386C24.314,53.729,23.6,54,23,54h-2c-1.654,0-3-1.346-3-3    c0-2.415,1.721-4.435,4-4.899V49c0,0.552,0.448,1,1,1h6c0.552,0,1-0.448,1-1v-3h4v3c0,0.552,0.448,1,1,1h6c0.552,0,1-0.448,1-1    v-2.899c2.279,0.464,4,2.485,4,4.899C46,51.789,45.692,52.53,45.132,53.087z" fill="#260A04"/>
<path d="M39.147,35.726C38.572,36.595,38,37.762,38,39c0,1.654,1.346,3,3,3s3-1.346,3-3    c0-1.238-0.572-2.405-1.147-3.274c3.307-0.995,4.797-4.542,5.134-6.561c0.071-0.426-0.142-0.847-0.524-1.047    c-0.383-0.199-0.854-0.13-1.164,0.17C46.226,28.357,44.491,30,41,30s-5.226-1.643-5.293-1.707    c-0.307-0.307-0.776-0.381-1.165-0.182c-0.387,0.199-0.6,0.625-0.529,1.054C34.35,31.184,35.841,34.73,39.147,35.726z M41,40    c-0.551,0-1-0.449-1-1c0-0.83,0.51-1.756,1-2.439c0.49,0.683,1,1.609,1,2.439C42,39.551,41.551,40,41,40z M41,32    c1.717,0,3.106-0.34,4.166-0.759C44.448,32.589,43.177,34,41,34s-3.449-1.411-4.166-2.759C37.894,31.66,39.283,32,41,32z" fill="#260A04"/>
<path d="M21.147,35.726C20.572,36.595,20,37.762,20,39c0,1.654,1.346,3,3,3s3-1.346,3-3    c0-1.238-0.572-2.405-1.147-3.274c3.307-0.995,4.797-4.542,5.134-6.561c0.071-0.426-0.142-0.847-0.524-1.047    c-0.382-0.199-0.854-0.13-1.164,0.17C28.226,28.357,26.491,30,23,30s-5.226-1.643-5.293-1.707    c-0.306-0.307-0.776-0.381-1.165-0.182c-0.387,0.199-0.6,0.625-0.529,1.054C16.35,31.184,17.841,34.73,21.147,35.726z M23,40    c-0.551,0-1-0.449-1-1c0-0.83,0.51-1.756,1-2.439c0.49,0.683,1,1.609,1,2.439C24,39.551,23.551,40,23,40z M23,32    c1.717,0,3.106-0.34,4.166-0.759C26.448,32.589,25.177,34,23,34s-3.449-1.411-4.166-2.759C19.894,31.66,21.283,32,23,32z" fill="#260A04"/>
<path d="M64,39c0-12.63-10.233-22.911-22.843-22.996c-1.623-0.746-3.351-1.3-5.157-1.633V12    c0-6.617-5.383-12-12-12c-2.206,0-4,1.794-4,4s1.794,4,4,4s4,1.794,4,4v2.371c-1.805,0.333-3.534,0.887-5.157,1.633    C10.233,16.089,0,26.37,0,39s10.233,22.911,22.843,22.996C25.633,63.279,28.733,64,32,64s6.367-0.721,9.157-2.004    C53.767,61.911,64,51.63,64,39z M24,6c-1.103,0-2-0.897-2-2s0.897-2,2-2c5.514,0,10,4.486,10,10v2.095    C33.341,14.035,32.675,14,32,14s-1.341,0.035-2,0.095V12C30,8.691,27.309,6,24,6z M45.218,59.574C50.547,55.555,54,49.174,54,42    h-2c0,11.028-8.972,20-20,20s-20-8.972-20-20h-2c0,7.174,3.453,13.555,8.782,17.574C9.217,57.616,2,49.135,2,39    s7.217-18.616,16.782-20.574C13.453,22.445,10,28.826,10,36h2c0-11.028,8.972-20,20-20s20,8.972,20,20h2    c0-7.174-3.453-13.555-8.782-17.574C54.783,20.384,62,28.865,62,39S54.783,57.616,45.218,59.574z" fill="#260A04"/>
</g>
</g>
</svg>