<?xml version="1.0" ?>
<!-- Uploaded to: SVG Repo, www.svgrepo.com, Generator: SVG Repo Mixer Tools -->
<svg width="800px" height="800px" viewBox="0 0 64 64" enable-background="new 0 0 64 64" id="Filled_Outline_00000081607312705973271110000009714898175699931553_" version="1.1" xml:space="preserve" xmlns="http://www.w3.org/2000/svg" xmlns:xlink="http://www.w3.org/1999/xlink">
<g>
<g>
<path d="M41,17h-0.1c-2.705-1.27-5.714-2-8.9-2s-6.195,0.73-8.9,2H23C10.85,17,1,26.85,1,39v0    c0,12.15,9.85,22,22,22h0.1c2.705,1.27,5.714,2,8.9,2s6.195-0.73,8.9-2H41c12.15,0,22-9.85,22-22v0C63,26.85,53.15,17,41,17z" fill="#FF6D1F"/>
<path d="M21,4L21,4c0,1.657,1.343,3,3,3h0c2.761,0,5,2.239,5,5v3h6v-3c0-6.075-4.925-11-11-11h0    C22.343,1,21,2.343,21,4z" fill="#A69D24"/>
<path d="M35,29c0,0,2,2,6,2s6-2,6-2s-1,6-6,6S35,29,35,29z M23,35c5,0,6-6,6-6s-2,2-6,2s-6-2-6-2S18,35,23,35z     M32,43c-9,0-13,8-13,8s7-2,13-2c6,0,13,2,13,2S41,43,32,43z" fill="#732002"/>
</g>
<g>
<path d="M47.462,28.117c-0.383-0.201-0.854-0.131-1.163,0.17C46.227,28.357,44.491,30,41,30    s-5.227-1.643-5.293-1.707c-0.309-0.309-0.779-0.381-1.165-0.182s-0.6,0.625-0.528,1.054C34.407,31.529,36.375,36,41,36    s6.593-4.471,6.986-6.835C48.058,28.738,47.844,28.318,47.462,28.117z M41,34c-2.178,0-3.448-1.411-4.166-2.759    C37.894,31.66,39.283,32,41,32s3.106-0.34,4.166-0.759C44.448,32.589,43.177,34,41,34z" fill="#260A04"/>
<path d="M23,36c4.625,0,6.593-4.471,6.986-6.835c0.071-0.426-0.143-0.847-0.524-1.047    c-0.383-0.201-0.854-0.131-1.163,0.17C28.227,28.357,26.491,30,23,30s-5.227-1.643-5.293-1.707    c-0.309-0.309-0.779-0.381-1.165-0.182s-0.6,0.625-0.528,1.054C16.407,31.529,18.375,36,23,36z M23,32    c1.717,0,3.106-0.34,4.166-0.759C26.448,32.589,25.177,34,23,34c-2.178,0-3.448-1.411-4.166-2.759C19.894,31.66,21.283,32,23,32z" fill="#260A04"/>
<path d="M32,42c-9.509,0-13.72,8.204-13.895,8.553c-0.177,0.354-0.128,0.781,0.125,1.086    c0.254,0.305,0.663,0.432,1.044,0.323C19.344,51.942,26.215,50,32,50s12.656,1.942,12.726,1.961C44.816,51.987,44.908,52,45,52    c0.293,0,0.576-0.129,0.77-0.361c0.253-0.305,0.302-0.731,0.125-1.086C45.72,50.204,41.509,42,32,42z M32,48    c-3.893,0-8.132,0.804-10.749,1.403C22.999,47.195,26.482,44,32,44s9.001,3.195,10.749,5.403C40.132,48.804,35.893,48,32,48z" fill="#260A04"/>
<path d="M64,39c0-12.63-10.233-22.911-22.843-22.996c-1.623-0.746-3.351-1.3-5.157-1.633V12    c0-6.617-5.383-12-12-12c-2.206,0-4,1.794-4,4s1.794,4,4,4s4,1.794,4,4v2.371c-1.805,0.333-3.534,0.887-5.157,1.633    C10.233,16.089,0,26.37,0,39s10.233,22.911,22.843,22.996C25.633,63.279,28.733,64,32,64s6.367-0.721,9.157-2.004    C53.767,61.911,64,51.63,64,39z M24,6c-1.103,0-2-0.897-2-2s0.897-2,2-2c5.514,0,10,4.486,10,10v2.095    C33.341,14.035,32.675,14,32,14s-1.341,0.035-2,0.095V12C30,8.691,27.309,6,24,6z M45.218,59.574C50.547,55.555,54,49.174,54,42    h-2c0,11.028-8.972,20-20,20s-20-8.972-20-20h-2c0,7.174,3.453,13.555,8.782,17.574C9.218,57.616,2,49.135,2,39    s7.218-18.616,16.782-20.574C13.453,22.445,10,28.826,10,36h2c0-11.028,8.972-20,20-20s20,8.972,20,20h2    c0-7.174-3.453-13.555-8.782-17.574C54.782,20.384,62,28.865,62,39S54.782,57.616,45.218,59.574z" fill="#260A04"/>
</g>
</g>
</svg>